<?xml version="1.0" standalone="no"?>
<!DOCTYPE svg PUBLIC "-//W3C//DTD SVG 20010904//EN"
 "http://www.w3.org/TR/2001/REC-SVG-20010904/DTD/svg10.dtd">
<svg version="1.0" xmlns="http://www.w3.org/2000/svg"
 width="641.000000pt" height="640.000000pt" viewBox="0 0 641.000000 640.000000"
 preserveAspectRatio="xMidYMid meet">

<g transform="translate(0.000000,640.000000) scale(0.100000,-0.100000)"
fill="#000000" stroke="none">
<path d="M0 5755 c0 -550 2 -645 14 -645 8 0 21 -3 30 -6 13 -5 16 1 16 31 0
79 97 130 250 129 67 0 83 -4 147 -37 40 -20 80 -37 89 -37 9 0 27 -9 41 -20
14 -11 39 -20 55 -20 16 0 31 -6 34 -14 6 -14 58 -32 187 -62 65 -15 80 -15
87 -4 7 11 11 10 25 -3 23 -23 58 -31 112 -23 67 9 76 20 54 64 -39 78 -31
144 11 92 13 -16 18 -39 18 -81 l0 -59 35 0 c38 0 164 41 201 65 34 22 77 101
78 143 1 32 4 37 26 38 14 0 35 4 48 8 36 12 25 -28 -25 -88 -53 -64 6 -36 90
43 109 102 217 266 217 329 0 70 -14 69 -61 -2 -73 -111 -71 -85 5 74 20 41
36 80 36 87 0 7 11 29 25 49 14 20 25 45 25 54 0 9 12 30 26 45 24 26 27 27
36 11 7 -12 7 -26 -1 -42 -6 -13 -8 -24 -5 -24 12 0 113 76 119 89 3 9 0 11
-10 7 -8 -3 -22 -9 -30 -12 -8 -3 -15 -1 -15 5 0 6 3 10 8 9 17 -3 62 23 62
37 0 20 43 29 71 15 l22 -12 -24 -19 -24 -19 40 -1 c22 -1 51 -2 65 -3 26 -1
38 7 56 39 12 22 55 31 80 17 14 -8 13 -12 -12 -36 -18 -16 -40 -26 -58 -26
-17 0 -26 -4 -20 -8 20 -18 120 -42 175 -42 46 0 73 -7 119 -30 32 -16 61 -34
65 -39 5 -9 47 -8 142 4 27 3 33 0 41 -24 8 -22 29 -37 97 -70 48 -23 88 -40
89 -39 29 47 40 58 60 58 20 0 130 -65 164 -97 18 -17 27 -16 43 3 11 13 25
15 76 10 81 -8 93 -14 93 -40 0 -36 20 -48 39 -25 16 20 18 20 81 4 36 -9 70
-22 76 -30 11 -14 128 -24 141 -12 3 4 20 7 38 7 17 0 36 5 43 12 9 9 16 7 32
-10 12 -12 32 -22 45 -22 27 0 32 -9 13 -28 -19 -19 77 -57 116 -45 39 12 100
-1 133 -27 23 -18 23 -20 6 -20 -10 0 -23 4 -28 9 -17 16 -87 31 -103 22 -11
-6 -9 -10 11 -15 16 -4 29 -17 35 -36 12 -34 32 -40 32 -10 0 14 7 20 24 20
32 0 106 -27 127 -46 10 -9 19 -11 23 -6 4 6 35 8 79 4 39 -4 149 -6 242 -6
147 1 193 5 340 32 94 18 208 34 255 38 47 3 117 10 155 15 165 23 208 23 256
-1 24 -13 55 -31 68 -41 13 -11 27 -19 32 -19 17 0 -3 26 -36 48 -38 24 -42
37 -21 65 17 22 39 14 57 -21 7 -15 24 -39 37 -54 23 -25 23 -28 8 -43 -15
-15 -14 -20 19 -58 20 -23 49 -67 65 -99 16 -32 42 -75 58 -96 34 -43 61 -93
74 -136 14 -50 48 -255 48 -295 0 -43 -32 -135 -60 -173 -11 -15 -20 -32 -20
-37 0 -6 -6 -14 -13 -18 -7 -4 -22 -20 -33 -34 -11 -15 -42 -46 -69 -69 -28
-23 -64 -54 -80 -70 -51 -46 -165 -130 -178 -130 -7 0 -18 -9 -25 -20 -8 -13
-23 -20 -43 -20 -21 0 -40 -9 -56 -26 -15 -16 -30 -24 -40 -20 -9 4 -24 -3
-39 -19 -18 -19 -30 -24 -49 -19 -15 4 -25 2 -25 -4 0 -24 -32 -43 -61 -37
-21 5 -29 3 -29 -8 0 -17 -44 -39 -65 -31 -9 4 -23 -3 -33 -16 -13 -16 -29
-23 -50 -22 -18 0 -35 -5 -39 -12 -14 -24 -49 -36 -62 -23 -9 9 -16 7 -31 -13
-13 -18 -27 -24 -53 -23 -22 1 -38 -4 -41 -13 -8 -21 -48 -34 -64 -21 -11 8
-18 6 -30 -10 -22 -27 -62 -39 -73 -22 -6 10 -14 7 -34 -15 -21 -22 -31 -26
-55 -21 -22 5 -34 1 -50 -15 -16 -16 -29 -20 -47 -15 -19 4 -31 0 -45 -15 -16
-17 -28 -20 -52 -16 -24 5 -36 1 -49 -15 -15 -17 -25 -20 -52 -15 -28 6 -36 3
-45 -14 -8 -15 -19 -20 -37 -18 -27 3 -33 11 -53 66 -11 29 -40 46 -40 22 0
-5 5 -10 10 -10 6 0 9 -15 7 -35 -3 -20 0 -38 4 -41 14 -8 10 -24 -6 -24 -8 0
-15 -4 -15 -8 0 -13 50 -56 95 -82 61 -36 179 -154 260 -260 111 -145 138
-168 231 -192 62 -17 109 -21 219 -21 177 0 196 2 218 21 15 14 19 13 37 -3
19 -17 20 -17 20 0 0 11 5 15 16 11 9 -3 25 0 35 8 11 8 29 12 40 9 11 -3 19
0 19 7 0 6 6 10 12 8 18 -6 28 -65 14 -84 -11 -15 -14 -15 -28 -1 -14 14 -17
13 -28 -8 -7 -13 -18 -21 -26 -18 -16 6 -19 -8 -5 -22 6 -6 1 -14 -15 -22 -22
-10 -25 -10 -20 4 5 13 4 13 -8 4 -7 -6 -21 -9 -29 -5 -12 4 -18 -2 -23 -21
-4 -18 -9 -23 -14 -15 -6 9 -11 7 -18 -6 -6 -10 -14 -16 -18 -12 -4 4 -1 16 7
25 12 16 11 15 -8 -1 -13 -10 -25 -27 -28 -37 -4 -11 -12 -16 -21 -12 -7 3
-14 0 -14 -7 0 -6 -4 -8 -10 -5 -6 4 -5 13 2 25 9 14 14 16 20 7 6 -9 10 -8
18 3 12 19 13 47 1 54 -5 4 -7 -4 -3 -16 4 -16 2 -20 -9 -16 -9 4 -23 -7 -37
-28 l-23 -35 38 -16 c95 -39 254 -36 386 8 105 35 224 115 203 137 -4 3 -12
-2 -19 -11 -11 -16 -12 -15 -14 5 -5 60 -19 112 -26 101 -13 -21 -25 -15 -29
14 -2 14 -9 29 -17 31 -10 3 -13 -2 -9 -22 6 -32 1 -32 -36 -2 -18 15 -27 30
-23 39 3 9 1 17 -5 19 -7 3 -6 11 3 26 8 12 20 20 26 17 16 -5 16 0 3 25 -7
13 -7 21 0 25 5 3 10 1 10 -4 0 -6 5 -11 11 -11 6 0 8 9 4 22 -6 17 -4 20 10
14 13 -5 16 -2 11 10 -8 20 72 96 137 130 65 34 163 42 239 20 71 -20 128 -78
128 -130 0 -19 5 -47 10 -62 16 -40 29 -189 44 -492 13 -263 12 -317 -4 -327
-4 -2 -5 -80 -2 -172 2 -92 -1 -217 -6 -276 -10 -98 -9 -114 9 -165 11 -31 24
-103 29 -160 4 -56 13 -108 19 -116 7 -8 7 -16 0 -23 -6 -6 -10 -32 -10 -59 3
-380 3 -378 -15 -425 -11 -25 -31 -60 -45 -77 -53 -62 -168 -120 -254 -126
-16 -1 -40 -8 -53 -15 -12 -7 -31 -9 -42 -6 -10 3 -21 1 -25 -5 -8 -13 -58
-13 -71 0 -8 8 -15 6 -24 -5 -14 -17 -43 -20 -69 -5 -15 7 -26 1 -60 -35 -23
-25 -46 -45 -51 -45 -16 0 -20 18 -10 46 12 30 6 44 -12 26 -15 -15 -61 -15
-76 0 -9 9 -15 9 -24 0 -16 -16 -53 -15 -79 1 -17 9 -23 9 -26 0 -6 -18 -68
-16 -83 2 -11 13 -14 12 -29 -5 -13 -17 -21 -19 -47 -11 -17 5 -52 6 -78 4
-28 -4 -51 -1 -60 6 -10 8 -16 9 -21 1 -10 -16 -75 -12 -81 5 -4 8 -12 15 -20
15 -8 0 -14 -7 -14 -15 0 -25 -67 -20 -81 7 l-11 21 -17 -21 c-18 -24 -57 -21
-79 7 -12 15 -14 15 -26 -2 -16 -21 -74 -23 -82 -2 -7 17 -34 21 -34 5 0 -5
-18 -10 -40 -10 -29 0 -40 4 -40 15 0 19 -19 19 -26 0 -9 -22 -70 -20 -84 3
-10 16 -10 16 -20 0 -7 -11 -23 -18 -42 -18 -17 0 -37 8 -44 18 -13 16 -15 16
-25 0 -14 -24 -74 -24 -84 0 -6 16 -7 16 -19 0 -14 -19 -86 -26 -86 -8 0 15
-19 12 -36 -5 -21 -20 -61 -19 -73 2 -9 17 -10 17 -28 0 -25 -22 -69 -22 -83
1 -10 16 -12 15 -26 -6 -19 -26 -50 -29 -75 -6 -17 15 -19 15 -34 0 -19 -19
-66 -21 -83 -4 -8 8 -15 8 -24 1 -28 -23 -59 -25 -80 -7 -18 18 -20 18 -29 1
-13 -23 -74 -23 -83 0 -6 14 -9 14 -27 -5 -23 -26 -51 -28 -73 -7 -8 8 -19 15
-24 15 -6 0 -12 -7 -16 -15 -8 -22 -72 -20 -86 2 -10 17 -10 17 -20 1 -15 -24
-76 -24 -89 -1 -9 17 -10 17 -28 0 -25 -22 -72 -22 -89 1 -13 16 -15 16 -25 0
-13 -23 -77 -25 -85 -3 -8 19 -30 19 -38 0 -7 -20 -72 -20 -80 0 -7 19 -32 19
-40 0 -9 -23 -63 -19 -77 6 l-11 21 -22 -21 c-29 -27 -72 -28 -81 -1 -8 24
-30 26 -39 5 -3 -10 1 -18 12 -21 9 -3 46 -16 82 -29 36 -13 90 -31 120 -40
30 -8 87 -24 125 -35 48 -15 113 -23 208 -27 170 -8 182 -21 35 -38 -39 -5
-73 -2 -110 8 -29 8 -78 20 -108 26 -30 5 -98 22 -150 36 -52 14 -104 24 -115
21 -31 -8 -89 11 -111 35 -28 31 -93 61 -118 55 -30 -7 -66 4 -66 20 0 19 -24
18 -40 -1 -16 -20 -69 -20 -76 0 -8 19 -28 19 -44 0 -14 -17 -59 -11 -76 11
-15 18 -30 18 -38 -1 -9 -23 -62 -19 -80 7 -15 20 -16 21 -34 5 -28 -26 -82
-19 -82 9 0 16 -26 19 -35 4 -3 -6 -22 -10 -40 -10 -25 0 -37 6 -46 22 -11 20
-13 20 -24 5 -19 -27 -85 -20 -85 9 0 16 -16 19 -25 4 -3 -6 -23 -10 -44 -10
-31 0 -40 4 -44 21 -5 20 -7 20 -28 5 -16 -11 -34 -14 -61 -10 -28 5 -38 3
-38 -7 -1 -10 -3 -10 -10 2 -5 9 -25 20 -44 23 -19 4 -37 13 -40 22 -4 12 -10
13 -26 4 -24 -13 -67 -3 -79 17 -6 12 -13 13 -28 5 -11 -6 -29 -8 -41 -5 -20
5 -21 2 -16 -28 4 -19 11 -38 15 -44 5 -5 9 -20 9 -35 0 -14 9 -68 19 -120 11
-52 19 -122 19 -155 0 -48 11 -87 50 -190 27 -71 68 -170 91 -219 22 -49 41
-97 41 -107 0 -16 8 -19 48 -19 l47 0 25 71 c13 39 31 81 41 93 9 11 19 37 22
56 3 19 15 62 26 95 11 33 32 102 47 153 22 71 32 92 46 92 22 0 22 -3 4 -60
-8 -25 -29 -90 -46 -145 -18 -55 -38 -110 -45 -121 -8 -12 -27 -62 -44 -110
-16 -49 -32 -97 -36 -107 -7 -15 2 -17 91 -17 l99 0 23 38 c42 69 158 209 167
200 3 -3 -21 -58 -54 -122 l-59 -116 269 0 270 0 104 50 c126 60 212 87 228
71 14 -14 16 -12 -93 -70 l-95 -51 194 0 194 0 -49 32 c-52 35 -43 50 18 29
35 -12 48 -7 30 11 -16 16 -15 38 1 38 16 0 97 -68 97 -81 0 -5 -9 -9 -21 -9
-11 0 -17 -4 -14 -10 3 -5 25 -10 48 -9 32 0 37 2 22 9 -16 6 -17 9 -5 14 8 3
29 5 45 3 32 -2 34 3 21 60 -6 27 -6 27 9 8 72 -96 71 -95 126 -95 46 0 49 2
49 25 0 33 18 32 26 -1 6 -22 11 -25 43 -22 31 3 36 7 39 31 2 16 11 31 19 34
20 8 45 -25 37 -49 -5 -17 20 -18 566 -18 l571 0 -19 27 c-11 16 -33 40 -49
54 -36 34 -161 106 -199 115 -49 12 -55 44 -9 44 13 0 34 -4 47 -9 13 -5 58
-20 101 -33 42 -12 77 -27 77 -31 0 -5 12 -22 27 -37 16 -16 46 -51 68 -79
l40 -50 1023 0 1022 -1 -2 2823 -3 2822 -40 -2 c-78 -3 -157 -11 -162 -17 -3
-3 0 -20 6 -38 7 -18 14 -69 17 -113 4 -70 2 -87 -20 -135 -13 -30 -27 -64
-31 -74 -4 -14 -9 -16 -17 -8 -8 8 -7 24 3 59 8 28 13 90 12 150 -1 88 -4 106
-22 129 -12 15 -19 35 -16 45 6 19 -19 149 -37 189 -6 14 -15 45 -19 70 -22
133 -41 229 -68 352 -17 76 -31 140 -31 143 0 3 -20 5 -45 5 -25 0 -45 -4 -45
-10 0 -5 -7 -10 -16 -10 -8 0 -12 5 -9 10 4 7 -132 10 -399 10 l-406 0 -1 -22
c0 -13 -6 -39 -14 -58 -10 -29 -14 -32 -20 -17 -4 10 -5 36 -2 57 l5 40 -50 0
c-43 0 -49 -2 -38 -15 10 -12 8 -26 -11 -72 -31 -78 -41 -89 -62 -65 -15 17
-14 21 13 62 17 25 30 55 30 68 l0 22 -352 0 c-193 0 -348 -3 -345 -7 4 -3 2
-12 -3 -18 -13 -15 -60 -7 -67 11 -4 11 -34 14 -132 14 l-127 0 -36 -47 c-19
-27 -45 -66 -56 -88 -11 -22 -36 -56 -56 -75 -19 -19 -36 -42 -36 -50 0 -12
-4 -11 -15 4 -13 18 -13 22 4 40 10 12 28 39 40 61 12 22 35 60 51 85 15 25
29 51 29 58 1 9 -132 12 -634 12 l-635 0 0 -24 c0 -29 15 -41 49 -41 28 0 47
-25 38 -49 -6 -15 -9 -15 -35 -2 -35 18 -55 7 -71 -36 -6 -16 -17 -28 -25 -28
-9 0 -22 -13 -30 -28 -23 -44 -58 -58 -105 -42 -50 16 -60 38 -29 62 28 22 38
22 38 3 0 -8 5 -15 10 -15 13 0 13 6 -2 30 -17 27 1 46 30 31 11 -6 27 -8 35
-6 20 8 47 70 47 110 l0 35 -274 0 -273 0 -7 -62 c-3 -35 -1 -80 4 -100 6 -21
10 -44 9 -50 -1 -7 1 -21 6 -32 5 -11 4 -21 -3 -25 -8 -5 -7 -15 4 -36 13 -26
13 -32 -2 -64 -27 -57 -40 -65 -58 -39 -21 30 -20 80 2 109 11 13 22 35 25 49
8 30 -26 140 -63 200 -5 8 -11 23 -14 33 -5 16 -27 17 -285 17 l-280 0 -30
-54 c-17 -29 -31 -63 -31 -74 0 -30 -31 -62 -63 -66 -15 -1 -32 -7 -37 -12
-13 -14 -70 -151 -86 -212 -8 -30 -37 -96 -65 -148 -27 -52 -49 -100 -49 -107
0 -7 12 -18 28 -25 l27 -11 -30 5 c-18 3 -38 -1 -50 -10 -27 -21 -35 -20 -35
3 0 11 -9 26 -20 34 -19 13 -20 23 -16 133 2 69 -1 135 -7 158 -9 32 -8 40 4
50 9 6 18 18 22 26 3 8 6 10 6 3 1 -8 13 -10 36 -6 46 7 51 -8 31 -94 -8 -38
-13 -79 -9 -91 3 -13 0 -34 -7 -48 -10 -17 -10 -28 -3 -35 22 -22 131 223 173
387 13 55 28 85 64 128 25 31 46 59 46 61 0 3 -36 5 -79 5 -74 0 -79 -1 -85
-23 -4 -16 -19 -28 -53 -40 -61 -22 -76 -21 -96 1 -28 30 -20 39 41 50 42 7
-73 10 -425 11 l-483 1 0 -645z m2728 600 c3 -15 0 -17 -24 -11 -29 8 -46 24
-38 37 8 13 59 -7 62 -26z m502 -14 c0 -5 -3 -11 -7 -13 -12 -5 -112 -153
-122 -180 -5 -14 -21 -41 -35 -62 -14 -21 -28 -53 -32 -72 -3 -18 -12 -38 -20
-45 -17 -14 -17 -18 1 61 37 166 64 214 165 293 37 28 50 33 50 18z m-190 -34
c0 -30 -32 -60 -54 -51 -23 9 -20 40 6 58 32 22 48 20 48 -7z m1580 -7 c0 -16
-23 -60 -32 -60 -9 0 -10 16 -2 48 6 21 34 32 34 12z m-2952 -32 c17 -17 15
-28 -7 -28 -22 0 -35 15 -26 30 8 13 18 13 33 -2z m3495 -8 c-3 -11 -12 -20
-19 -20 -17 0 -18 12 -2 28 18 18 27 15 21 -8z m-2462 -11 c19 -10 18 -12 -17
-30 -50 -25 -54 -24 -54 11 0 26 4 30 26 30 14 0 34 -5 45 -11z m100 -50 c16
-8 28 -6 54 10 28 16 36 17 51 7 26 -19 11 -66 -21 -66 -13 0 -27 5 -30 10 -3
6 -19 10 -34 10 -16 0 -34 7 -41 15 -7 8 -19 15 -26 15 -8 0 -14 7 -14 15 0
16 -1 16 61 -16z m3149 -8 c0 -23 6 -44 16 -52 17 -14 37 -51 48 -86 13 -40
-28 -27 -67 21 -20 24 -50 49 -67 56 -37 15 -39 43 -5 58 14 7 28 19 31 27 4
8 15 15 25 15 15 0 19 -7 19 -39z m-950 5 c0 -16 -21 -36 -36 -36 -12 0 -12
29 1 50 7 12 35 1 35 -14z m-735 3 c11 0 44 3 73 7 43 5 52 4 52 -9 0 -28 -27
-38 -97 -36 -48 1 -96 -6 -162 -25 -74 -21 -96 -24 -103 -14 -22 35 112 94
187 82 17 -3 39 -5 50 -5z m-328 -28 c39 -62 18 -154 -39 -169 -42 -11 -56 -1
-60 46 -3 34 -6 37 -35 40 -50 5 -43 22 27 70 51 36 90 40 107 13z m-3017 -5
c0 -3 -4 -8 -10 -11 -5 -3 -10 -1 -10 4 0 6 5 11 10 11 6 0 10 -2 10 -4z
m3920 -52 c0 -28 -12 -31 -34 -8 -26 26 -18 45 15 37 12 -3 19 -14 19 -29z
m-3955 16 c-3 -5 -11 -10 -16 -10 -6 0 -7 5 -4 10 3 6 11 10 16 10 6 0 7 -4 4
-10z m4535 -16 c20 -19 1 -37 -36 -32 -24 2 -30 8 -32 32 -3 27 -2 28 25 22
15 -4 35 -14 43 -22z m-4117 4 c14 -11 15 -19 6 -53 -12 -41 -69 -105 -95
-105 -17 0 -17 4 -4 28 5 9 15 33 23 52 8 19 19 47 25 63 13 30 20 33 45 15z
m-758 -49 c-7 -40 -6 -41 16 -33 44 14 72 10 76 -11 15 -67 15 -85 -1 -85 -10
0 -19 11 -22 29 -4 17 -12 32 -18 34 -21 8 -66 -5 -66 -19 0 -7 -11 -23 -24
-36 -31 -30 -35 -57 -13 -91 15 -24 15 -27 2 -27 -9 0 -18 8 -22 18 -3 9 -15
24 -26 33 -31 25 -32 58 -2 69 24 9 66 77 70 115 1 11 3 26 4 33 0 6 8 12 17
12 13 0 15 -7 9 -41z m3873 20 c-2 -6 -8 -10 -13 -10 -5 0 -11 4 -13 10 -2 6
4 11 13 11 9 0 15 -5 13 -11z m-768 -19 c0 -5 -4 -10 -10 -10 -5 0 -10 5 -10
10 0 6 5 10 10 10 6 0 10 -4 10 -10z m935 -28 c0 -18 -20 -15 -23 4 -3 10 1
15 10 12 7 -3 13 -10 13 -16z m-2035 -2 c0 -5 -9 -14 -20 -20 -22 -12 -27 -1
-8 18 14 14 28 16 28 2z m-790 -4 c0 -3 -4 -8 -10 -11 -5 -3 -10 -1 -10 4 0 6
5 11 10 11 6 0 10 -2 10 -4z m3224 -37 c9 -45 7 -79 -3 -79 -11 0 -31 55 -31
86 0 35 26 29 34 -7z m-3406 -61 c7 -7 12 -31 12 -54 0 -34 4 -44 21 -49 15
-5 25 -1 35 14 20 28 33 27 74 -8 19 -17 46 -38 59 -49 29 -23 21 -42 -20 -42
-16 0 -38 -5 -48 -12 -17 -10 -26 -6 -65 25 -24 21 -48 37 -53 36 -27 -5 -43
3 -43 21 0 21 -24 27 -36 9 -4 -7 -10 -7 -16 -1 -7 7 -4 20 9 39 11 15 23 40
27 56 7 29 24 35 44 15z m-165 -61 c-3 -23 -12 -49 -19 -57 -12 -12 -14 -8
-14 29 0 45 15 85 30 76 4 -3 6 -24 3 -48z m-1286 23 c28 -16 53 -65 53 -102
0 -17 -30 7 -79 62 -47 54 -50 60 -29 60 13 0 37 -9 55 -20z m193 -45 c0 -14
-4 -25 -10 -25 -5 0 -10 11 -10 25 0 14 5 25 10 25 6 0 10 -11 10 -25z m4891
-16 c16 -11 29 -25 29 -30 0 -14 -67 -11 -107 6 -30 13 -33 17 -23 30 18 21
67 19 101 -6z m-893 -21 c-7 -13 -11 -26 -10 -30 1 -5 -2 -8 -8 -8 -15 0 -12
21 7 42 22 24 26 23 11 -4z m-3133 -28 c0 -17 -35 -28 -92 -29 -44 -1 -73 6
-73 19 0 6 55 33 90 43 22 6 75 -17 75 -33z m2833 -35 c3 -28 -33 -84 -62 -95
-26 -9 -66 -3 -66 11 0 10 23 41 62 82 31 32 62 33 66 2z m250 -32 c-16 -33
-32 -36 -36 -6 -2 13 5 27 20 37 28 20 34 7 16 -31z m1174 15 c-6 -6 -15 -8
-19 -4 -4 4 -1 11 7 16 19 12 27 3 12 -12z m447 13 c15 -10 7 -31 -12 -31 -21
0 -40 17 -33 29 9 13 26 14 45 2z m-4319 -10 c0 -13 -26 -32 -33 -24 -8 7 11
33 24 33 5 0 9 -4 9 -9z m-847 -37 c11 -11 -5 -34 -23 -34 -22 0 -34 15 -25
30 7 11 38 14 48 4z m135 -142 c-3 -49 -11 -98 -17 -111 -24 -43 -9 -52 76
-45 63 5 82 3 98 -10 20 -16 20 -16 1 -31 -21 -16 -88 -28 -132 -23 -21 2 -33
12 -45 35 -9 18 -19 30 -22 26 -9 -8 -15 13 -20 67 -3 25 -8 66 -12 92 -7 45
-7 47 26 67 19 12 38 21 43 21 5 0 7 -40 4 -88z m-268 39 c0 -14 -23 -27 -52
-29 -33 -2 -45 13 -21 27 22 13 73 14 73 2z m4518 -3 c19 -19 14 -30 -8 -18
-11 6 -20 15 -20 20 0 14 14 12 28 -2z m956 -16 c9 -15 -9 -29 -46 -36 -45 -8
-50 7 -10 28 31 17 49 20 56 8z m-5680 -22 c32 -13 46 -25 46 -38 0 -28 24
-44 53 -37 21 6 28 2 42 -25 9 -17 25 -40 36 -51 10 -10 19 -26 19 -34 0 -15
-12 -17 -85 -17 -68 0 -72 1 -78 30 -3 15 -29 58 -57 96 -46 62 -57 96 -31 96
5 0 30 -9 55 -20z m5965 -6 c-14 -18 -24 -11 -15 11 3 9 11 13 16 10 8 -5 7
-11 -1 -21z m-4668 -112 c-6 -12 -11 -30 -11 -41 0 -12 -12 -26 -32 -35 -39
-20 -46 -14 -19 13 12 12 21 27 21 34 0 15 40 61 47 54 2 -3 0 -14 -6 -25z
m-590 -20 c19 -6 53 -12 73 -12 45 0 41 -9 -28 -58 l-45 -32 -21 30 c-20 28
-42 117 -23 95 4 -6 24 -16 44 -23z m-293 -27 c-3 -3 -35 -17 -72 -30 -44 -16
-68 -20 -72 -13 -12 20 49 43 120 47 16 0 27 -1 24 -4z m117 -125 c3 -5 1 -10
-4 -10 -6 0 -11 5 -11 10 0 6 2 10 4 10 3 0 8 -4 11 -10z m9 -111 c-10 -16
-24 -9 -24 12 0 18 2 19 15 9 8 -7 12 -16 9 -21z m-54 -30 c0 -40 -10 -49 -27
-26 -18 22 -22 57 -7 57 8 0 14 5 14 11 0 5 5 7 10 4 6 -3 10 -24 10 -46z
m5415 -1829 c82 -77 38 -207 -72 -217 -61 -6 -111 24 -132 81 -20 53 0 111 49
144 45 31 118 27 155 -8z m-899 -177 c15 -20 19 -63 5 -47 -5 5 -11 18 -13 29
-2 11 -10 19 -17 17 -7 -1 -10 2 -6 8 9 14 16 13 31 -7z m914 -898 c0 -5 -5
-3 -10 5 -5 8 -10 20 -10 25 0 6 5 3 10 -5 5 -8 10 -19 10 -25z m20 -36 c0
-11 5 -17 10 -14 6 3 10 -4 10 -16 0 -21 0 -21 -20 4 -22 27 -26 47 -10 47 6
0 10 -9 10 -21z m-10 -520 c0 -11 -4 -17 -10 -14 -5 3 -10 13 -10 21 0 8 5 14
10 14 6 0 10 -9 10 -21z m-44 -871 c9 -15 -41 -58 -67 -58 -29 0 -21 41 11 57
31 16 47 16 56 1z m-391 -28 c8 -13 -13 -40 -31 -40 -14 0 -19 31 -7 43 10 10
31 8 38 -3z m-4655 -20 c12 -8 9 -10 -12 -10 -16 0 -28 5 -28 10 0 13 20 13
40 0z m58 -34 c3 -13 -1 -17 -14 -14 -11 2 -20 11 -22 22 -3 13 1 17 14 14 11
-2 20 -11 22 -22z m3482 20 c0 -11 -19 -15 -25 -6 -3 5 1 10 9 10 9 0 16 -2
16 -4z m-340 -36 c0 -5 -7 -10 -15 -10 -8 0 -15 5 -15 10 0 6 7 10 15 10 8 0
15 -4 15 -10z m-1338 -15 c0 -5 -5 -11 -11 -13 -6 -2 -11 4 -11 13 0 9 5 15
11 13 6 -2 11 -8 11 -13z m1283 -6 c0 -7 -8 -15 -17 -17 -18 -3 -25 18 -11 32
10 10 28 1 28 -15z m576 0 c23 -12 25 -37 4 -45 -30 -12 -16 -30 20 -26 39 5
40 3 21 -53 -10 -28 -20 -40 -33 -39 -25 2 -87 27 -95 39 -5 6 -11 5 -17 -3
-11 -18 -65 -11 -68 8 -6 32 13 45 50 33 29 -9 40 -7 66 9 39 25 39 32 -1 48
-44 18 -59 30 -52 42 7 11 76 3 105 -13z m199 -3 c5 -13 14 -27 20 -31 15 -9
2 -25 -15 -19 -19 8 -47 52 -40 64 11 17 25 11 35 -14z m-1744 -1 c-22 -17
-46 -20 -46 -6 0 11 18 19 45 20 20 0 20 0 1 -14z m-2066 -100 c0 -8 -2 -15
-4 -15 -2 0 -12 -3 -21 -7 -15 -5 -16 -3 -6 15 13 25 31 29 31 7z m3830 -51
c0 -8 -4 -12 -10 -9 -5 3 -10 10 -10 16 0 5 5 9 10 9 6 0 10 -7 10 -16z
m-1522 -23 c3 -16 -1 -22 -10 -19 -7 3 -15 15 -16 27 -3 16 1 22 10 19 7 -3
15 -15 16 -27z m1812 9 c0 -5 -2 -10 -4 -10 -3 0 -8 5 -11 10 -3 6 -1 10 4 10
6 0 11 -4 11 -10z m-61 -16 c2 -2 -3 -12 -12 -22 -23 -25 -22 -29 13 -37 74
-16 28 -47 -69 -46 -50 0 -74 -4 -96 -19 -54 -35 -89 -21 -60 24 19 28 39 37
87 38 46 1 68 15 68 43 0 13 6 26 13 28 11 5 47 -1 56 -9z m-1001 -57 c2 -10
-3 -17 -12 -17 -10 0 -16 9 -16 21 0 24 23 21 28 -4z m746 7 c4 -11 0 -15 -16
-12 -12 2 -23 9 -26 16 -6 18 35 15 42 -4z m-1774 -24 c0 -5 -4 -10 -10 -10
-5 0 -10 5 -10 10 0 6 5 10 10 10 6 0 10 -4 10 -10z m803 -44 c81 -31 97 -32
97 -7 0 22 15 29 47 23 29 -6 31 -42 3 -49 -23 -6 -23 -8 -10 -33 19 -35 -19
-30 -112 15 -50 25 -96 45 -102 45 -20 0 -39 18 -31 30 8 13 11 12 108 -24z
m707 10 c0 -16 -14 -36 -26 -36 -16 0 -16 2 -8 24 5 14 34 24 34 12z m219 -10
c10 -12 9 -17 -6 -24 -23 -13 -54 3 -47 23 8 19 38 19 53 1z m731 4 c0 -5 -9
-10 -19 -10 -11 0 -23 5 -26 10 -4 6 5 10 19 10 14 0 26 -4 26 -10z m-1974
-67 c-8 -9 -46 18 -40 28 4 6 13 4 25 -7 11 -9 17 -19 15 -21z m1412 -4 c4
-24 -30 -34 -45 -13 -20 27 -16 36 14 32 16 -2 29 -10 31 -19z m0 -69 c30 -20
29 -40 -2 -34 -14 2 -53 -3 -88 -12 -35 -9 -83 -17 -107 -18 l-45 -1 -2 38 -3
38 30 -26 c36 -29 38 -30 75 -10 16 8 37 15 46 15 10 0 22 9 28 20 11 20 25
18 68 -10z m-2393 0 c3 -5 16 -10 29 -10 20 0 66 -32 66 -46 0 -8 -55 3 -81
16 -36 19 -49 31 -43 41 7 12 21 11 29 -1z m1948 -32 c2 -7 0 -21 -5 -31 -14
-28 -4 -31 60 -20 36 7 61 7 67 2 12 -12 -11 -29 -41 -29 -12 0 -38 -7 -57
-15 -20 -8 -45 -15 -56 -15 -26 0 -37 31 -16 46 13 10 14 17 5 33 -6 12 -8 26
-5 31 9 14 43 12 48 -2z m-1533 -33 c0 -14 -4 -25 -10 -25 -5 0 -10 11 -10 25
0 14 5 25 10 25 6 0 10 -11 10 -25z m-246 -3 c8 -24 37 -24 54 0 23 32 61 12
46 -26 -5 -14 28 -30 84 -40 19 -3 46 -15 61 -25 15 -11 33 -19 41 -19 62 4
115 -20 94 -42 -8 -8 -28 -6 -74 10 -51 17 -69 19 -88 11 -21 -10 -27 -8 -44
14 -12 16 -29 25 -48 25 -15 0 -33 7 -40 15 -7 9 -18 14 -24 12 -6 -3 -26 2
-45 9 -18 8 -44 14 -56 14 -23 0 -36 23 -28 48 7 20 61 15 67 -6z m216 -7 c0
-31 -26 -43 -47 -22 -21 21 -9 47 22 47 20 0 25 -5 25 -25z m74 3 c-9 -31 -12
-34 -25 -21 -15 15 -4 43 16 43 12 0 15 -6 9 -22z m132 -17 c-9 -14 -33 -14
-41 -1 -4 6 1 7 11 3 14 -5 16 -2 11 17 -5 21 -5 22 10 8 8 -9 12 -21 9 -27z
m1025 12 c36 -21 36 -26 3 -52 -35 -27 -50 -26 -70 4 -13 20 -25 25 -56 25
-49 0 -87 18 -67 31 26 16 158 10 190 -8z m-1721 -3 c0 -5 -2 -10 -4 -10 -3 0
-8 5 -11 10 -3 6 -1 10 4 10 6 0 11 -4 11 -10z m1949 -16 c-15 -18 -22 -13
-13 10 3 9 10 13 16 10 5 -3 4 -12 -3 -20z m-831 -67 c-9 -17 -19 -41 -23 -52
-7 -18 -9 -16 -18 12 -12 40 -2 80 21 86 30 6 38 -11 20 -46z m752 27 c17 -44
13 -51 -27 -50 -32 1 -38 4 -38 23 0 12 -4 25 -8 29 -15 16 -5 24 28 24 29 0
37 -5 45 -26z m788 20 c23 -7 30 -28 12 -39 -14 -9 -62 23 -55 35 7 12 12 12
43 4z m-708 -48 c0 -28 -33 -41 -51 -20 -9 11 -8 14 4 14 8 0 20 7 27 15 17
20 20 19 20 -9z"/>
<path d="M3873 6083 c-7 -3 -13 -12 -13 -21 0 -15 2 -15 17 1 18 18 16 27 -4
20z"/>
<path d="M6166 3261 c-3 -4 3 -16 14 -26 24 -22 25 -33 3 -57 -29 -33 -3 -33
29 0 l32 32 -29 30 c-30 31 -40 36 -49 21z"/>
<path d="M6020 6392 c0 -15 31 -52 44 -52 8 0 21 -12 31 -26 l17 -27 -27 5
c-44 9 -44 10 14 -249 24 -104 35 -138 50 -148 6 -3 8 -17 5 -30 -8 -32 25
-130 52 -156 35 -32 109 -43 162 -23 l42 16 0 349 0 349 -195 0 c-107 0 -195
-3 -195 -8z m340 -10 c0 -20 -32 -72 -41 -67 -13 9 -11 22 7 50 16 25 34 33
34 17z m-30 -462 c0 -5 -7 -10 -16 -10 -8 0 -12 5 -9 10 3 6 10 10 16 10 5 0
9 -4 9 -10z m-64 -40 c-30 -14 -45 -16 -67 -8 -49 17 -32 28 39 27 l67 -1 -39
-18z"/>
<path d="M2220 5682 c0 -1 7 -17 16 -34 9 -17 14 -43 12 -59 -4 -26 -1 -29 31
-35 43 -8 162 -66 180 -88 12 -15 10 -15 -24 0 -20 8 -45 19 -54 24 -9 6 -38
18 -66 29 -27 10 -57 21 -66 25 -11 5 -21 -1 -33 -18 l-16 -25 48 -15 c27 -8
67 -23 90 -35 23 -12 48 -21 57 -21 8 0 15 -4 15 -10 0 -13 -27 -13 -35 -1
-10 17 -118 43 -154 37 -70 -10 -101 -18 -101 -27 0 -5 -9 -9 -19 -9 -11 0
-26 -6 -33 -13 -31 -31 -79 -44 -172 -47 -12 0 -16 -5 -12 -16 3 -8 -1 -22 -9
-30 -27 -28 -18 -37 33 -31 l47 5 -55 -18 c-30 -10 -50 -19 -45 -20 6 0 3 -5
-5 -11 -11 -8 -12 -12 -2 -16 17 -7 15 -32 -3 -39 -8 -4 -15 -11 -15 -17 0 -6
-10 -21 -22 -34 -20 -22 -21 -23 -2 -23 15 0 12 -6 -16 -30 -29 -25 -32 -30
-15 -30 l20 -1 -20 -15 c-11 -8 -27 -19 -35 -24 -10 -6 -12 -12 -5 -19 8 -8
27 -3 65 17 53 27 68 42 175 190 63 87 115 112 233 112 73 -1 76 -2 50 -15
-14 -8 -48 -17 -75 -20 -76 -9 -132 -43 -171 -104 -19 -29 -29 -50 -22 -46 13
8 7 -43 -10 -80 -5 -11 -15 -33 -22 -50 -10 -27 -12 -28 -15 -9 -2 12 3 38 11
57 11 29 12 39 2 52 -11 16 -16 13 -50 -29 -38 -45 -133 -106 -167 -106 -25 0
-81 -59 -110 -116 -9 -18 -19 -31 -22 -28 -8 9 -58 -39 -53 -51 2 -7 -4 -10
-17 -8 -14 3 -34 -7 -54 -26 -18 -16 -33 -28 -33 -25 0 12 -50 -30 -55 -47 -5
-16 -10 -18 -20 -9 -19 16 -37 2 -29 -22 4 -13 2 -18 -4 -14 -17 10 -62 -5
-62 -20 0 -8 -8 -14 -18 -14 -29 0 -22 -38 10 -53 18 -7 26 -17 23 -27 -4 -13
6 -15 68 -12 88 4 101 8 93 27 -4 13 -1 12 19 -2 13 -10 25 -21 25 -25 0 -8
-49 -13 -79 -9 -7 2 -25 -11 -38 -28 -26 -31 -53 -41 -53 -20 0 5 4 8 8 5 4
-2 14 5 21 16 12 19 11 20 -6 13 -10 -4 -26 -8 -35 -9 -10 0 -18 -4 -18 -8 0
-10 21 -48 39 -70 8 -10 10 -18 5 -18 -5 0 -2 -5 6 -11 12 -8 10 -9 -7 -4 -25
7 -33 -12 -9 -21 8 -3 12 -12 9 -20 -4 -10 0 -12 11 -8 10 4 15 13 12 21 -3 8
-1 11 4 8 5 -3 18 -1 27 4 17 10 17 10 1 11 -22 0 -24 26 -3 33 15 6 31 -8 18
-16 -5 -2 -2 -2 5 -1 36 9 106 -46 97 -77 -6 -17 -3 -19 19 -13 17 4 26 2 26
-6 0 -7 -7 -10 -15 -6 -8 3 -15 1 -15 -4 0 -6 5 -10 10 -10 6 0 10 -5 10 -11
0 -6 -8 -8 -19 -4 -10 3 -24 -1 -31 -10 -17 -20 -29 -19 -50 5 -16 18 -20 19
-33 6 -13 -13 -19 -13 -51 3 -28 15 -38 16 -46 6 -11 -13 11 -41 23 -28 4 3
15 -1 24 -9 10 -9 34 -19 53 -23 45 -9 72 -24 65 -34 -3 -5 1 -21 9 -36 8 -15
12 -34 9 -43 -4 -10 -2 -13 5 -8 6 4 27 0 47 -8 33 -14 37 -14 55 4 20 20 25
15 14 -14 -3 -8 -12 -12 -20 -9 -8 3 -14 1 -14 -5 0 -6 -3 -17 -6 -25 -3 -9 2
-18 14 -21 13 -4 19 -16 19 -36 0 -34 1 -33 -31 -19 -14 7 -22 17 -19 25 3 8
-6 18 -23 24 -23 9 -25 13 -14 21 13 8 13 10 0 19 -8 5 -22 10 -30 10 -8 0
-27 11 -42 25 -24 22 -30 24 -55 13 l-28 -12 34 -4 c37 -4 64 -28 56 -50 -4
-10 2 -12 18 -7 20 5 20 5 4 -6 -14 -8 -22 -8 -30 0 -6 6 -25 10 -42 10 -22
-1 -24 -3 -8 -6 12 -2 32 -14 45 -26 47 -45 57 -50 72 -38 11 10 22 8 48 -5
18 -10 38 -18 43 -19 6 0 9 -8 7 -18 -2 -10 3 -17 13 -17 8 0 15 -9 15 -20 0
-21 -24 -28 -35 -10 -8 13 -25 13 -25 0 0 -5 11 -12 24 -16 14 -3 27 -13 30
-21 6 -14 9 -14 26 2 12 10 20 13 20 7 0 -7 17 -12 41 -12 33 0 40 3 35 16 -3
9 -2 12 5 9 6 -4 19 1 30 11 15 13 19 14 19 3 0 -25 -14 -37 -60 -48 -25 -7
-54 -16 -65 -21 -11 -5 -31 -11 -45 -13 -21 -4 -20 -5 7 -6 17 0 35 4 38 9 4
6 11 7 17 4 15 -10 -33 -34 -54 -28 -10 3 -18 1 -18 -4 0 -13 103 -25 140 -17
27 6 29 5 24 -20 -3 -20 1 -27 18 -34 20 -8 21 -10 6 -16 -10 -4 -15 -11 -12
-16 3 -5 -5 -9 -16 -9 -16 0 -20 -4 -16 -16 4 -12 2 -15 -9 -11 -8 4 -17 2
-20 -3 -4 -6 -1 -10 6 -10 8 0 8 -4 -1 -16 -11 -12 -11 -14 -1 -12 7 2 18 -6
24 -17 7 -11 19 -25 27 -32 13 -11 13 -14 0 -24 -13 -9 -13 -10 2 -6 40 13 88
18 99 11 9 -5 8 -9 -5 -14 -17 -6 -18 -7 -1 -23 26 -27 12 -43 -54 -63 -63
-18 -76 -39 -25 -39 16 0 36 -4 44 -9 13 -9 13 -8 1 7 -12 15 -11 17 8 17 19
0 27 -16 22 -44 -1 -5 5 -6 13 -3 9 3 16 -2 19 -14 3 -13 13 -20 24 -18 10 1
30 -1 46 -6 19 -5 35 -2 52 9 27 18 80 22 70 5 -4 -6 0 -9 8 -7 9 2 16 -1 15
-6 0 -5 7 -13 16 -18 9 -5 16 -21 16 -35 0 -19 4 -24 16 -19 9 3 18 6 20 6 2
0 4 8 4 18 0 14 2 15 10 2 7 -11 1 -22 -21 -42 -17 -16 -36 -28 -43 -28 -18 0
-56 38 -66 66 -14 36 -31 30 -18 -6 5 -17 14 -33 19 -36 5 -3 9 -12 9 -20 0
-18 -50 -38 -63 -25 -12 12 -37 3 -37 -14 0 -15 -43 -25 -62 -14 -8 5 -20 0
-32 -13 -14 -15 -27 -19 -51 -15 -24 4 -36 0 -49 -15 -14 -16 -25 -19 -51 -14
-25 5 -34 3 -39 -10 -5 -12 -15 -15 -44 -12 -27 3 -45 -1 -65 -16 -23 -17 -31
-18 -47 -8 -13 8 -21 8 -26 1 -12 -19 -55 -30 -71 -18 -11 9 -16 8 -27 -6 -9
-13 -22 -16 -47 -13 -21 3 -38 0 -48 -9 -9 -10 -25 -13 -44 -9 -17 3 -36 1
-43 -5 -8 -7 -27 -9 -45 -5 -18 3 -38 1 -45 -5 -17 -14 -96 -14 -173 1 -71 13
-141 44 -189 85 -41 34 -92 113 -92 141 0 12 -6 29 -12 36 -33 34 -42 53 -49
96 -4 26 -28 103 -53 172 -31 85 -48 146 -51 190 -3 45 -12 80 -29 110 -13 25
-41 86 -61 135 -21 50 -41 95 -45 100 -4 6 -22 55 -40 109 -20 61 -42 107 -56
120 -21 19 -60 110 -101 239 -12 40 -18 47 -34 42 -23 -8 -24 3 -3 34 19 26
14 50 -36 181 -52 139 -74 223 -72 279 1 30 0 63 -4 73 -5 18 -7 19 -25 3 -10
-10 -25 -15 -34 -12 -13 6 -15 -72 -15 -735 0 -717 1 -741 18 -725 25 23 34
21 30 -5 -2 -15 -11 -24 -25 -26 l-23 -3 0 -700 0 -699 30 -27 c17 -14 30 -33
30 -40 0 -8 7 -21 15 -29 17 -18 20 -34 5 -34 -12 0 -38 26 -62 60 -16 24 -17
-35 -17 -1037 l-1 -1063 535 0 535 0 0 38 c0 28 -7 45 -24 61 -13 12 -26 39
-30 60 -5 34 -40 142 -80 250 -25 65 -66 131 -82 131 -18 0 -34 60 -22 83 11
21 38 23 38 2 0 -20 22 -65 32 -65 14 0 9 48 -8 64 -9 9 -17 36 -19 60 -1 26
-14 65 -31 93 -44 76 -80 147 -86 170 -4 16 -17 22 -56 27 -27 3 -55 13 -62
21 -7 8 -20 15 -30 15 -10 0 -23 7 -30 15 -7 8 -16 13 -20 10 -4 -2 -16 2 -26
10 -10 8 -26 15 -35 15 -9 0 -22 7 -29 15 -7 8 -20 15 -30 15 -10 0 -23 7 -30
16 -8 8 -28 21 -47 29 -18 8 -33 19 -33 24 0 6 -7 11 -15 11 -8 0 -15 7 -15
15 0 23 -36 18 -52 -7 -10 -15 -20 -19 -32 -15 -15 6 -16 10 -6 22 7 8 19 15
26 15 23 0 16 15 -30 71 -85 105 -102 215 -71 464 13 107 53 213 93 249 12 11
22 25 22 33 0 7 11 40 25 73 14 33 25 62 25 64 0 3 -21 -8 -47 -24 -42 -27
-73 -38 -73 -26 0 22 121 103 144 97 4 -1 34 22 65 52 109 104 176 131 351
141 58 4 143 15 190 27 47 11 103 24 125 29 22 5 69 16 105 24 36 9 133 25
216 36 145 19 293 59 347 95 12 7 49 21 83 29 82 21 126 40 148 65 28 31 43
27 38 -10 -3 -22 -1 -30 7 -25 6 4 11 13 11 20 0 16 99 106 116 106 6 0 17 -7
24 -15 20 -24 32 -18 26 13 -8 35 12 63 55 77 20 7 39 23 48 39 16 33 83 66
132 64 19 0 48 6 66 15 18 10 41 17 51 17 11 0 22 9 25 20 3 12 14 20 27 20
12 0 33 9 47 20 14 11 37 20 52 19 23 0 24 -1 6 -9 -18 -8 -18 -9 5 -9 35 -1
70 10 70 21 0 5 -9 6 -20 3 -11 -4 -20 -2 -20 4 0 6 9 16 20 23 11 7 20 20 20
29 0 17 30 49 30 33 1 -26 18 -36 40 -24 12 6 20 17 17 23 -6 16 20 40 28 27
3 -6 20 -10 37 -10 38 0 98 -28 98 -46 0 -18 -4 -18 54 11 27 14 56 25 63 25
8 0 24 7 37 15 13 9 34 18 46 20 22 4 22 4 5 -15 -10 -11 -15 -23 -12 -26 3
-4 31 18 61 47 54 52 55 54 33 65 -15 9 -26 9 -34 2 -9 -7 -13 -7 -13 1 0 6
-4 11 -10 11 -5 0 -10 -7 -10 -15 0 -11 -11 -15 -42 -15 l-42 0 27 28 c15 15
27 33 27 40 0 15 0 15 44 -3 26 -11 45 -13 69 -7 32 10 31 11 -19 27 -13 4
-14 8 -4 20 10 12 15 13 32 1 17 -12 25 -11 61 9 23 13 63 27 89 30 49 7 50
16 3 43 -19 11 -19 11 -1 12 12 0 16 5 13 14 -4 10 -1 13 9 9 8 -3 13 -12 10
-19 -7 -19 29 -18 48 2 9 9 24 13 35 9 11 -3 36 1 56 9 21 9 41 13 46 10 12
-7 101 13 146 32 17 8 45 14 63 14 23 0 33 5 37 20 4 15 17 21 55 26 36 5 48
10 44 20 -6 16 10 19 19 4 3 -5 16 -9 28 -9 17 1 18 2 5 6 -10 2 -18 9 -18 15
0 5 7 7 16 4 10 -4 14 -1 12 6 -3 7 -11 13 -19 13 -8 0 -14 5 -14 10 0 6 -4
16 -8 23 -5 6 -4 12 0 12 5 0 15 -6 22 -12 11 -11 13 -8 9 15 -4 20 -1 27 11
28 9 1 5 4 -9 8 -25 8 -25 8 13 26 20 10 37 22 37 27 0 4 7 8 16 8 8 0 12 5 9
10 -4 6 -14 9 -23 8 -11 -2 -16 3 -14 15 2 9 -2 17 -8 17 -6 0 -9 -4 -5 -9 3
-5 1 -13 -5 -16 -8 -5 -7 -11 1 -21 9 -11 7 -14 -9 -14 -12 0 -24 5 -27 10 -3
6 -2 10 3 10 5 0 9 7 9 16 0 10 -7 14 -19 11 -16 -4 -17 -3 -7 9 9 11 6 16
-16 24 -14 5 -31 10 -36 10 -6 0 -7 5 -4 10 4 6 1 17 -5 25 -17 20 -3 37 28
34 15 -2 32 0 38 4 7 4 14 0 18 -8 3 -8 2 -14 -2 -14 -18 3 -32 -2 -32 -10 0
-9 57 2 68 14 3 3 -3 12 -14 20 -15 11 -16 14 -4 15 13 0 13 1 0 11 -11 8 -12
12 -2 16 6 2 12 9 12 14 0 5 -9 4 -19 -3 -11 -7 -17 -16 -14 -22 4 -5 -1 -7
-10 -3 -12 4 -15 2 -11 -11 3 -9 -7 -2 -23 16 -24 28 -33 32 -58 27 -29 -6
-29 -6 -11 9 11 9 24 16 28 16 5 0 20 11 34 25 14 14 36 25 50 25 28 0 43 29
36 66 -4 25 -19 25 -80 3 -13 -5 -31 -9 -40 -9 -25 0 0 20 33 26 39 7 44 11
38 34 -3 11 -9 17 -14 14 -5 -3 -9 -1 -9 3 0 5 9 14 20 21 12 7 18 16 15 21
-2 5 2 14 10 21 8 7 15 24 16 39 l0 26 12 -24 c9 -19 9 -25 -1 -29 -13 -4 -17
-22 -4 -22 4 0 16 7 26 15 16 12 17 17 6 30 -7 8 -10 19 -6 22 4 4 11 1 15 -6
6 -9 11 -10 15 -2 4 6 2 11 -4 11 -7 0 -10 7 -7 15 7 17 -9 30 -18 15 -4 -7
-12 -7 -25 0 -25 13 -30 13 -30 -5 0 -8 -7 -15 -15 -15 -8 0 -15 9 -15 20 0
11 -4 20 -9 20 -4 0 -6 12 -3 27 5 27 5 27 15 5 12 -26 29 -28 47 -7 7 8 17
12 22 9 6 -4 6 -10 -1 -17 -14 -14 -14 -27 -1 -27 6 0 16 11 22 25 6 14 18 25
25 25 8 0 12 4 8 10 -3 5 -13 7 -23 4 -9 -3 -2 8 16 26 48 45 32 49 -21 6 -51
-42 -66 -46 -43 -11 20 30 21 47 1 21 -7 -10 -18 -15 -23 -12 -6 3 -12 -1 -16
-9 -3 -8 -1 -15 4 -15 6 0 10 -7 10 -17 0 -15 -1 -15 -18 0 -14 12 -21 14 -29
6 -7 -7 -19 -9 -27 -6 -20 8 -21 43 -2 50 20 8 8 48 -13 46 -30 -3 -34 1 -20
18 11 13 11 17 2 20 -7 3 -13 11 -13 19 0 12 4 12 23 2 12 -7 32 -21 43 -31
20 -17 23 -17 38 -2 19 20 20 31 4 37 -19 7 -39 -2 -32 -14 4 -6 1 -9 -7 -6
-8 2 -20 19 -28 36 -9 20 -22 32 -34 32 -13 0 -17 -5 -14 -15 5 -12 1 -12 -21
-4 -26 10 -42 26 -42 43 0 5 9 1 19 -8 13 -12 21 -14 26 -6 4 6 15 8 26 5 25
-8 40 2 32 21 -3 9 -16 15 -32 14 -48 -4 -56 -1 -43 12 18 18 15 38 -5 38 -15
0 -16 2 -3 10 8 5 11 10 5 11 -5 1 -14 2 -20 4 -5 1 -16 3 -24 3 -11 2 -10 7
3 27 19 29 20 35 5 35 -6 0 -17 7 -25 15 -17 17 -11 19 14 6 13 -7 17 -4 19
12 0 12 3 31 5 42 2 15 -3 20 -19 20 -11 0 -25 3 -29 8 -4 4 -1 7 8 7 17 0 17
42 0 48 -7 2 -12 13 -11 25 0 12 3 16 6 10 5 -15 33 -18 33 -4 0 6 -10 17 -22
26 l-23 17 22 -7 c18 -5 22 -3 17 9 -4 11 3 16 28 19 28 3 26 4 -12 5 -26 1
-51 -3 -56 -8 -7 -7 -17 -5 -30 5 -19 14 -18 14 4 15 32 0 27 17 -8 25 -26 6
-30 11 -28 36 1 16 8 29 15 29 7 0 13 9 13 20 0 26 -30 27 -37 1 -3 -11 -14
-19 -26 -19 -12 0 -44 -5 -71 -10 -27 -6 -57 -6 -65 -2 -9 5 -36 16 -62 26
-39 15 -45 21 -41 43 2 20 -4 30 -28 43 -26 15 -30 21 -24 45 7 27 7 27 -28
-9 -19 -21 -41 -38 -47 -38 -7 0 -24 12 -38 28 -23 25 -25 32 -20 94 6 75 3
78 -67 68 -38 -5 -40 -7 -61 -70 -11 -36 -26 -74 -33 -86 -8 -14 -8 -24 -1
-31 8 -8 7 -13 0 -17 -6 -4 -11 -2 -11 3 0 6 -4 11 -10 11 -19 0 -10 -15 19
-31 25 -14 48 -65 35 -78 -4 -4 -57 -9 -107 -10 -17 -1 -26 -5 -22 -12 4 -6
-1 -16 -11 -24 -11 -7 -16 -17 -12 -21 5 -4 16 0 27 10 17 16 20 16 35 1 9 -9
20 -14 25 -10 6 3 19 -2 31 -12 11 -10 22 -16 24 -13 2 3 10 -1 19 -9 20 -16
24 -56 5 -45 -7 4 -2 -6 10 -23 26 -36 21 -44 -20 -32 -21 6 -36 5 -45 -3 -23
-19 -41 7 -20 30 9 10 17 27 17 38 -1 18 -1 18 -11 2 -12 -21 -29 -24 -29 -5
0 8 -9 22 -20 32 -24 21 -27 9 -4 -16 14 -15 13 -19 -11 -43 -14 -14 -28 -26
-30 -26 -2 0 -16 12 -30 27 -14 15 -25 22 -25 16 0 -7 11 -23 25 -37 15 -15
22 -31 19 -40 -7 -18 -23 -21 -25 -6 -1 6 -3 15 -4 20 -1 6 -3 13 -4 18 -1 4
-9 -8 -17 -25 -16 -32 -34 -44 -34 -23 0 6 -4 10 -10 10 -5 0 -7 -13 -4 -29 4
-21 2 -30 -11 -34 -12 -5 -19 1 -27 23 -14 42 -25 37 -24 -11 1 -24 -4 -44
-11 -46 -8 -3 -10 8 -6 38 4 30 3 40 -5 35 -7 -4 -12 -16 -12 -28 0 -12 -5
-18 -13 -15 -11 4 -11 -5 -3 -45 9 -43 8 -52 -7 -63 -9 -7 -17 -24 -17 -38 0
-20 -4 -25 -16 -20 -14 5 -15 1 -9 -27 6 -30 5 -32 -11 -25 -57 23 -72 13 -35
-24 19 -19 19 -20 -10 -30 -28 -10 -30 -9 -24 10 4 11 1 26 -5 34 -7 8 -10 22
-6 30 10 27 -12 16 -41 -19 -29 -37 -56 -34 -46 4 6 24 -5 25 -35 4 -20 -14
-23 -14 -28 1 -4 8 -4 25 -1 38 l6 22 -19 -24 c-12 -14 -26 -21 -35 -17 -9 3
-18 -1 -21 -9 -9 -22 -24 -18 -24 5 0 30 -26 24 -47 -10 -9 -16 -23 -30 -30
-30 -8 0 -16 14 -19 30 -7 31 -19 39 -27 18 -4 -10 -8 -10 -15 1 -8 11 -11 9
-14 -10 -1 -13 -6 -23 -10 -21 -5 1 -8 4 -8 7 0 3 0 20 0 38 0 26 6 35 30 45
40 18 40 40 -1 34 -29 -4 -30 -3 -20 16 6 11 19 23 30 27 10 3 26 14 36 25 17
19 16 19 -24 -1 -33 -16 -47 -31 -67 -74 -13 -30 -29 -55 -35 -55 -6 0 -3 10
5 22 19 27 21 53 4 41 -19 -11 -68 -10 -68 2 0 6 5 16 12 23 9 9 8 12 -4 12
-19 0 -14 35 9 61 12 15 11 17 -14 22 -15 3 -37 1 -50 -4 -28 -10 -29 -2 -3
31 11 14 20 32 20 41 0 8 6 21 13 29 10 12 9 12 -5 1 -10 -7 -18 -19 -18 -26
0 -6 -8 -19 -18 -29 -18 -15 -19 -14 -32 23 -14 42 -4 105 25 160 12 24 95 81
95 66 0 -3 -9 -25 -20 -47 -25 -52 -25 -56 0 -33 11 10 31 42 45 71 14 30 34
58 45 64 25 14 37 13 22 -2 -19 -19 -14 -30 8 -18 12 7 17 16 13 28 -5 14 -2
13 10 -3 14 -17 18 -18 26 -6 5 8 24 19 42 25 45 15 46 30 3 45 -49 18 -35 27
20 11 45 -12 86 -2 86 22 0 7 -4 7 -13 0 -13 -11 -73 -12 -92 -1 -5 3 -30 12
-55 19 -53 16 -81 36 -35 25 17 -3 48 -9 70 -11 22 -3 49 -8 60 -11 43 -13 90
-10 113 8 22 17 23 17 2 24 -29 9 -50 46 -70 118 -16 59 -19 62 -55 71 -21 5
-46 17 -57 28 -11 11 -26 17 -33 14 -7 -2 -16 1 -18 8 -5 12 -77 29 -77 18z
m70 -72 c0 -5 -4 -10 -10 -10 -5 0 -10 5 -10 10 0 6 5 10 10 10 6 0 10 -4 10
-10z m50 -25 c17 -9 30 -20 30 -25 0 -5 -16 0 -35 11 -51 31 -47 41 5 14z
m100 -66 c0 -6 -13 -1 -30 11 -16 12 -30 23 -30 26 0 2 14 -2 30 -11 17 -9 30
-20 30 -26z m-260 -119 c0 -5 -2 -10 -4 -10 -3 0 -8 5 -11 10 -3 6 -1 10 4 10
6 0 11 -4 11 -10z m143 -37 c-7 -2 -21 -2 -30 0 -10 3 -4 5 12 5 17 0 24 -2
18 -5z m-173 -118 c0 -2 -19 -14 -42 -25 l-43 -21 28 26 c25 22 57 34 57 20z
m-230 -224 c-11 -21 -30 -37 -30 -25 0 8 30 44 37 44 2 0 -1 -9 -7 -19z m77
-23 c-3 -8 -6 -5 -6 6 -1 11 2 17 5 13 3 -3 4 -12 1 -19z m1249 -88 c23 -10
48 -29 54 -41 11 -19 8 -25 -19 -52 -31 -32 -55 -32 -30 0 12 15 12 16 -3 10
-20 -7 -24 3 -7 20 9 9 6 11 -12 7 -22 -5 -23 -4 -6 9 24 20 21 28 -7 21 -13
-3 -27 -1 -30 5 -4 6 -2 11 3 11 6 0 11 5 11 11 0 5 -4 7 -10 4 -5 -3 -10 1
-10 9 0 9 -9 16 -20 16 -11 0 -20 6 -20 13 0 27 14 27 38 1 14 -14 44 -34 68
-44z m-1411 4 c-27 -24 -54 -44 -60 -44 -5 0 8 15 30 33 22 17 46 40 54 49 8
10 17 15 20 12 4 -4 -16 -26 -44 -50z m115 31 c11 -13 10 -14 -4 -9 -9 3 -16
10 -16 15 0 13 6 11 20 -6z m67 -47 c-3 -8 -6 -5 -6 6 -1 11 2 17 5 13 3 -3 4
-12 1 -19z m123 1 c0 -16 -20 -49 -29 -49 -14 0 -21 44 -8 52 17 11 37 10 37
-3z m1190 -81 c0 -6 6 -19 13 -27 14 -17 41 -111 34 -118 -2 -2 -15 21 -28 52
-13 30 -27 55 -31 55 -12 0 -10 -10 12 -68 11 -30 20 -68 20 -85 -1 -75 8
-204 15 -227 8 -25 7 -25 -13 -7 -20 18 -21 18 -31 -2 -15 -27 -14 -46 3 -61
12 -9 13 -16 3 -37 l-12 -26 -6 24 c-6 24 -7 23 -18 -7 -10 -25 -17 -31 -39
-30 -15 1 -32 5 -39 9 -6 4 -14 3 -17 -2 -4 -6 56 -64 92 -87 1 -1 -3 -13 -9
-27 -12 -26 -39 -45 -39 -27 0 6 -6 10 -13 10 -7 0 -18 10 -25 21 -10 15 -17
18 -24 11 -7 -7 -17 -5 -31 9 -32 29 -41 23 -15 -11 13 -16 33 -32 45 -36 22
-6 41 -40 29 -51 -3 -3 -12 0 -21 7 -13 11 -15 9 -13 -11 3 -20 -1 -24 -22
-21 -14 1 -31 10 -37 19 -12 16 -14 15 -27 -2 -7 -10 -20 -16 -28 -12 -12 4
-14 0 -11 -14 4 -15 0 -19 -21 -19 -34 0 -87 -22 -105 -43 -8 -11 -28 -17 -53
-17 -21 0 -56 -9 -78 -20 -47 -24 -110 -27 -110 -5 0 9 -6 12 -16 8 -9 -3 -20
0 -24 7 -7 11 -11 11 -24 1 -23 -19 -46 -7 -39 21 13 56 98 93 98 43 0 -18 6
-20 49 -17 27 2 59 10 71 18 12 8 30 12 39 8 20 -8 66 21 66 42 0 8 19 23 43
33 57 25 74 45 56 69 -13 15 -12 16 3 3 19 -14 17 -15 32 33 3 8 -2 17 -10 20
-8 3 -14 12 -14 19 0 8 -8 21 -17 28 -15 13 -16 12 -8 -6 4 -11 8 -31 9 -45 1
-20 -3 -24 -20 -22 -14 2 -30 -7 -43 -24 -22 -27 -22 -28 -28 -6 -6 26 -16 28
-33 7 -8 -9 -25 -13 -51 -11 -48 5 -75 34 -85 91 -10 62 -21 77 -45 65 -23
-13 -43 -4 -35 16 3 8 -1 14 -8 14 -15 0 -52 38 -44 45 7 7 75 -22 83 -35 4
-6 11 -7 17 -4 6 4 -7 23 -31 44 -23 21 -41 43 -41 51 0 8 9 4 23 -9 30 -28
42 -28 23 0 -9 12 -16 41 -16 64 0 34 5 47 27 63 48 39 72 38 110 -2 18 -20
33 -47 34 -59 0 -13 3 -17 6 -10 9 22 22 12 47 -35 15 -29 25 -40 26 -29 0 17
6 18 48 12 36 -4 53 -13 73 -36 31 -36 39 -38 39 -6 0 19 7 25 41 34 23 6 48
8 55 5 17 -6 18 9 3 24 -8 8 -1 18 25 38 29 22 43 26 73 21 21 -3 32 -3 26 0
-20 9 -15 24 7 24 11 0 20 4 20 9 0 5 -27 8 -60 7 -59 -1 -76 6 -44 18 9 3 25
6 35 6 11 0 17 5 14 10 -3 6 -15 10 -26 10 -10 0 -19 5 -19 10 0 6 5 10 10 10
6 0 15 11 20 25 5 13 23 31 40 40 36 19 39 30 6 21 -31 -8 -37 1 -20 32 8 15
19 39 24 55 9 27 30 38 30 15z m528 -2 c-7 -8 -15 -12 -17 -11 -5 6 10 25 20
25 5 0 4 -6 -3 -14z m-1718 -80 c0 -2 -8 -10 -17 -17 -16 -13 -17 -12 -4 4 13
16 21 21 21 13z m1718 -21 c-3 -27 -12 -32 -24 -13 -4 6 -2 14 4 16 7 2 10 8
6 13 -3 5 0 9 5 9 6 0 10 -11 9 -25z m-1041 -7 c-3 -8 -6 -5 -6 6 -1 11 2 17
5 13 3 -3 4 -12 1 -19z m583 -77 c0 -9 6 -23 12 -29 7 -7 18 -29 23 -50 15
-51 45 -57 45 -8 0 19 -4 38 -10 41 -12 8 -13 45 -1 45 19 0 33 -31 33 -72 0
-60 -17 -96 -53 -116 -27 -15 -30 -20 -25 -54 8 -47 -4 -48 -25 -4 -12 27 -13
37 -3 50 6 9 10 26 7 36 -3 12 0 20 7 20 16 0 7 74 -14 115 -18 34 -21 59 -6
50 6 -3 10 -14 10 -24z m-1970 -31 c0 -5 -5 -10 -11 -10 -5 0 -7 5 -4 10 3 6
8 10 11 10 2 0 4 -4 4 -10z m2500 2 c0 -4 -4 -12 -10 -18 -6 -6 -4 -19 5 -37
13 -26 13 -28 -2 -25 -10 2 -24 15 -32 29 -13 23 -13 28 0 42 15 17 39 23 39
9z m-285 -22 c-3 -5 -11 -10 -16 -10 -6 0 -7 5 -4 10 3 6 11 10 16 10 6 0 7
-4 4 -10z m-2315 -40 c0 -5 -4 -10 -10 -10 -5 0 -10 5 -10 10 0 6 5 10 10 10
6 0 10 -4 10 -10z m2465 -29 c10 -18 -17 -23 -33 -7 -15 15 -15 16 5 16 12 0
24 -4 28 -9z m79 -57 c24 -23 19 -27 -9 -8 -14 9 -25 18 -25 20 0 10 20 3 34
-12z m-2355 -25 c-20 -13 -36 -11 -42 4 -4 10 3 12 25 9 21 -3 26 -7 17 -13z
m-69 3 c0 -11 -80 -56 -86 -49 -3 3 0 15 6 27 9 16 14 19 25 10 10 -8 17 -7
27 4 14 17 28 21 28 8z m2434 -33 c-8 -13 -24 -1 -24 18 0 13 3 13 15 3 8 -7
12 -16 9 -21z m-444 -74 c0 -8 -4 -15 -10 -15 -5 0 -10 7 -10 15 0 8 5 15 10
15 6 0 10 -7 10 -15z m503 -16 c-6 -6 -17 -8 -24 -3 -9 5 -8 9 7 14 23 9 31 3
17 -11z m116 -3 c9 -11 6 -12 -14 -8 -14 2 -25 8 -25 13 0 14 26 11 39 -5z
m-1445 -38 c9 -55 16 -96 22 -128 5 -24 1 -36 -20 -57 -25 -24 -26 -25 -26 -5
0 31 -18 36 -26 7 -3 -14 -10 -25 -15 -25 -5 0 -6 -7 -2 -16 4 -12 0 -14 -20
-9 -14 4 -28 2 -31 -4 -13 -21 -46 -12 -47 12 0 12 -2 46 -3 75 -2 29 1 55 6
58 4 3 8 15 8 27 0 12 5 29 11 37 8 13 12 12 26 -7 18 -27 34 -30 30 -5 -3 24
17 27 21 2 2 -11 10 -20 18 -20 12 0 14 7 9 30 -4 19 -2 36 5 45 19 23 29 18
34 -17z m823 10 c-3 -8 -6 -5 -6 6 -1 11 2 17 5 13 3 -3 4 -12 1 -19z m515
-35 c12 -15 -9 -18 -30 -4 -12 7 -12 12 0 30 12 19 13 20 17 4 2 -10 8 -24 13
-30z m88 31 c0 -17 -22 -14 -28 4 -2 7 3 12 12 12 9 0 16 -7 16 -16z m-1740
-44 c0 -11 5 -20 11 -20 14 0 7 -52 -8 -58 -8 -2 -13 5 -13 17 0 12 -6 21 -15
21 -18 0 -19 14 -3 40 16 26 28 26 28 0z m80 1 c0 -31 21 -36 41 -10 17 22 19
22 19 4 0 -36 -32 -104 -53 -111 -24 -7 -38 12 -31 42 3 12 1 25 -5 28 -15 9
-14 39 1 54 17 17 28 15 28 -7z m1055 -176 c-14 -57 -41 -105 -29 -54 3 13 8
67 11 119 3 52 11 104 17 115 18 33 20 -110 1 -180z m-720 130 c0 -27 -8 -52
-17 -62 -16 -15 -17 -14 -24 11 -7 29 17 96 34 96 5 0 8 -20 7 -45z m-1135 3
c10 -21 10 -21 -3 -6 -8 10 -17 15 -20 11 -4 -3 -7 -1 -7 5 0 20 19 13 30 -10z
m-100 -8 c0 -5 -4 -10 -10 -10 -5 0 -10 5 -10 10 0 6 5 10 10 10 6 0 10 -4 10
-10z m197 -47 c-11 -10 -27 8 -27 30 l0 21 16 -22 c9 -13 14 -26 11 -29z m-37
2 c17 -9 30 -20 30 -26 0 -8 -5 -7 -15 1 -13 11 -20 11 -39 0 -33 -17 -50 -5
-28 20 20 24 16 24 52 5z m2450 -5 c0 -5 -7 -10 -15 -10 -8 0 -15 5 -15 10 0
6 7 10 15 10 8 0 15 -4 15 -10z m-2351 -34 c9 -11 9 -16 1 -21 -14 -9 -61 15
-54 27 8 13 40 9 53 -6z m-209 -16 c0 -5 -2 -10 -4 -10 -3 0 -8 5 -11 10 -3 6
-1 10 4 10 6 0 11 -4 11 -10z m157 -52 c-3 -8 -6 -5 -6 6 -1 11 2 17 5 13 3
-3 4 -12 1 -19z m-1647 2 c0 -5 -4 -10 -10 -10 -5 0 -10 5 -10 10 0 6 5 10 10
10 6 0 10 -4 10 -10z m3200 -11 c0 -18 -2 -19 -15 -9 -8 7 -15 16 -15 21 0 5
7 9 15 9 9 0 15 -9 15 -21z m-1587 -19 c4 -17 0 -20 -25 -20 -17 0 -27 4 -23
10 4 6 11 8 16 5 5 -4 9 1 9 9 0 23 17 20 23 -4z m85 -35 c0 -15 -6 -25 -14
-25 -17 0 -18 22 -2 38 16 16 16 16 16 -13z m1671 -47 c-12 -22 -30 -24 -24
-3 16 51 16 50 25 35 5 -8 5 -21 -1 -32z m-1712 0 c-3 -8 -6 -5 -6 6 -1 11 2
17 5 13 3 -3 4 -12 1 -19z m93 -18 c0 -5 -4 -10 -10 -10 -5 0 -10 5 -10 10 0
6 5 10 10 10 6 0 10 -4 10 -10z m25 -10 c3 -5 1 -10 -4 -10 -6 0 -11 5 -11 10
0 6 2 10 4 10 3 0 8 -4 11 -10z m-90 -40 c3 -5 1 -10 -4 -10 -6 0 -11 5 -11
10 0 6 2 10 4 10 3 0 8 -4 11 -10z m-1645 -51 c0 -24 -16 -25 -30 0 -7 14 -6
21 3 24 18 6 27 -2 27 -24z m3894 16 c3 -8 1 -15 -3 -15 -5 0 -11 7 -15 15 -3
8 -1 15 3 15 5 0 11 -7 15 -15z m72 -8 c9 -9 -16 -38 -27 -31 -5 3 -13 14 -19
24 -9 16 -7 18 15 16 14 -1 28 -6 31 -9z m-954 -18 c20 0 32 -9 48 -34 11 -18
26 -35 32 -37 6 -2 8 -10 4 -17 -6 -9 -13 -8 -33 4 -23 15 -26 15 -38 -2 -12
-16 -11 -19 8 -26 11 -4 32 -6 46 -5 14 2 27 -1 29 -7 1 -5 -4 -10 -10 -10 -7
0 -12 -7 -10 -16 1 -9 -7 -24 -18 -34 -18 -16 -20 -16 -26 -1 -10 26 -27 18
-21 -10 4 -22 2 -25 -17 -20 -29 8 -97 -4 -90 -16 4 -6 -3 -5 -15 2 -12 6 -37
10 -54 8 -28 -3 -32 0 -32 22 -1 49 -17 99 -34 103 -12 3 -9 7 12 15 15 6 27
19 27 28 0 10 3 14 7 11 10 -11 32 13 26 29 -6 17 1 18 29 3 16 -9 24 -7 37 6
11 11 24 14 41 10 14 -4 37 -7 52 -6z m-1119 -52 c-23 -7 -45 -15 -49 -19 -4
-5 -14 -8 -22 -8 -9 0 -12 3 -8 8 13 12 70 30 96 30 17 0 12 -3 -17 -11z
m-1913 -6 c0 -5 -7 -14 -15 -21 -18 -15 -42 1 -31 19 8 13 46 15 46 2z m3400
-24 c0 -19 3 -37 7 -41 4 -4 8 -23 10 -42 1 -24 -3 -37 -17 -44 -27 -14 -70
-12 -70 3 0 8 10 13 23 13 17 -1 22 4 21 22 0 12 2 22 6 22 4 0 5 23 2 50 -3
33 -1 50 7 50 6 0 11 -15 11 -33z m559 12 c5 8 11 9 15 3 3 -6 2 -13 -2 -16
-5 -3 -7 -17 -5 -30 4 -21 2 -24 -16 -19 -12 3 -21 10 -21 16 0 8 -3 8 -10 1
-8 -8 -8 -19 0 -38 7 -20 7 -27 -1 -24 -6 2 -9 6 -7 8 1 3 -5 16 -15 30 -23
32 -22 57 3 65 11 3 20 11 20 18 0 6 7 2 15 -9 12 -15 16 -16 24 -5z m-2165
-30 c-31 -12 -39 -10 -19 5 11 8 24 12 29 8 5 -3 1 -9 -10 -13z m91 -41 c17
-16 17 -18 3 -12 -13 4 -18 1 -18 -11 0 -10 -5 -15 -14 -12 -7 3 -19 0 -25 -6
-8 -8 -11 -8 -11 0 0 6 7 16 15 23 19 16 19 30 1 30 -8 0 -18 5 -21 10 -11 18
48 -1 70 -22z m-1725 -12 c0 -3 -4 -8 -10 -11 -5 -3 -10 -1 -10 4 0 6 5 11 10
11 6 0 10 -2 10 -4z m3642 -18 c-7 -7 -12 -8 -12 -2 0 6 3 14 7 17 3 4 9 5 12
2 2 -3 -1 -11 -7 -17z m-1915 -48 c-11 -18 -12 -19 -18 -2 -3 9 -1 20 4 24 19
12 27 -2 14 -22z m1723 20 c0 -5 -2 -10 -4 -10 -3 0 -8 5 -11 10 -3 6 -1 10 4
10 6 0 11 -4 11 -10z m-1830 -5 c0 -2 -10 -10 -22 -16 -21 -11 -22 -11 -9 4
13 16 31 23 31 12z m-1545 -44 c7 -12 -47 -51 -70 -51 -24 0 -13 21 21 41 34
21 41 22 49 10z m3359 -16 c3 -8 1 -15 -4 -15 -6 0 -10 7 -10 15 0 8 2 15 4
15 2 0 6 -7 10 -15z m-1790 -11 c3 -8 2 -12 -4 -9 -6 3 -10 10 -10 16 0 14 7
11 14 -7z m77 -177 c12 -22 12 -22 -10 -3 -11 11 -21 23 -21 28 0 14 19 -1 31
-25z m-1653 -32 c12 -3 22 -11 22 -16 0 -12 -47 -12 -71 2 -23 12 -15 32 9 25
10 -2 27 -7 40 -11z m1692 6 c0 -5 -7 -12 -16 -15 -14 -5 -15 -4 -4 9 14 17
20 19 20 6z m195 -11 c3 -5 2 -10 -4 -10 -5 0 -13 5 -16 10 -3 6 -2 10 4 10 5
0 13 -4 16 -10z m-125 -9 c0 -11 -31 -24 -39 -16 -3 3 1 10 9 15 19 12 30 12
30 1z m-1946 -25 c-10 -8 -21 -12 -23 -10 -3 2 4 11 15 18 10 8 21 12 23 10 3
-2 -4 -11 -15 -18z m2116 -16 c0 -5 -2 -10 -4 -10 -3 0 -8 5 -11 10 -3 6 -1
10 4 10 6 0 11 -4 11 -10z m140 -10 c0 -5 -5 -10 -11 -10 -5 0 -7 5 -4 10 3 6
8 10 11 10 2 0 4 -4 4 -10z m-2030 -14 c0 -2 -7 -6 -15 -10 -8 -3 -15 -1 -15
4 0 6 7 10 15 10 8 0 15 -2 15 -4z m-276 -22 c9 -4 16 -18 16 -34 0 -15 6 -33
14 -39 15 -12 10 -51 -6 -51 -22 0 -47 46 -48 88 0 45 0 45 24 36z m2236 -4
c9 -6 10 -10 3 -10 -6 0 -18 -2 -26 -5 -8 -4 -14 0 -14 10 0 17 15 19 37 5z
m-1816 -100 c7 -7 6 -14 -2 -22 -16 -16 -76 3 -80 26 -4 17 1 18 34 13 20 -4
42 -11 48 -17z m101 -35 c0 -5 -10 -11 -22 -13 -16 -2 -23 2 -23 13 0 11 7 15
23 13 12 -2 22 -7 22 -13z m-412 -60 c5 -28 -17 -59 -37 -52 -19 6 -19 57 1
72 22 16 29 12 36 -20z m727 -100 c0 -8 -9 -15 -21 -15 -11 0 -30 -5 -42 -11
-15 -7 -12 -2 8 15 34 29 55 33 55 11z m1250 -34 c0 -5 -11 -16 -25 -25 -14
-9 -25 -25 -25 -35 0 -10 -9 -26 -19 -35 -15 -14 -24 -15 -40 -6 -12 6 -21 13
-21 15 0 7 114 95 123 95 4 0 7 -4 7 -9z m-1924 -342 c5 -83 -8 -77 -32 15
-16 61 -10 96 12 74 9 -9 17 -43 20 -89z m604 91 c0 -5 -7 -10 -15 -10 -8 0
-15 5 -15 10 0 6 7 10 15 10 8 0 15 -4 15 -10z m-590 -223 c-1 -29 -2 -30 -14
-14 -8 10 -12 27 -9 37 8 29 23 13 23 -23z m-40 -332 c0 -10 -30 -65 -35 -65
-5 0 4 49 12 63 5 8 23 10 23 2z m90 -1770 c18 -21 5 -47 -22 -43 -26 3 -37
36 -16 49 18 12 24 11 38 -6z m14 -61 c9 -3 16 -17 16 -30 0 -22 -4 -24 -50
-24 -38 0 -52 4 -57 16 -12 31 47 55 91 38z"/>
<path d="M3265 4299 c-4 -6 -5 -12 -2 -15 2 -3 7 2 10 11 7 17 1 20 -8 4z"/>
<path d="M2986 3685 c4 -8 11 -15 16 -15 6 0 5 6 -2 15 -7 8 -14 15 -16 15 -2
0 -1 -7 2 -15z"/>
<path d="M3968 3693 c7 -3 16 -2 19 1 4 3 -2 6 -13 5 -11 0 -14 -3 -6 -6z"/>
<path d="M1989 5627 c-73 -91 -189 -296 -189 -333 0 -13 -44 -124 -63 -159 -6
-11 -21 -40 -34 -65 -34 -65 -121 -174 -168 -209 -47 -36 -115 -103 -115 -113
0 -19 24 -2 107 77 91 85 161 177 220 290 34 64 89 199 105 253 8 30 12 33 37
27 16 -3 48 1 75 10 26 9 57 13 69 10 15 -4 18 -4 8 3 -8 6 -11 17 -6 31 6 19
9 20 23 9 13 -11 15 -11 10 4 -7 16 18 35 30 23 3 -3 0 -5 -6 -5 -7 0 -12 -6
-12 -12 1 -7 9 -3 19 10 11 12 24 22 30 22 23 0 9 24 -44 77 -52 50 -84 62
-70 24 5 -13 4 -13 -6 -4 -10 10 -9 17 5 32 9 10 13 21 9 24 -5 3 -20 -9 -34
-26z m-3 -119 c-6 -16 -13 -23 -17 -17 -4 8 -14 7 -30 -2 l-24 -13 25 -6 25
-7 -28 -8 c-15 -4 -30 -5 -33 -3 -2 3 12 33 32 66 35 59 38 61 49 40 8 -16 8
-31 1 -50z m34 62 c0 -5 -7 -10 -16 -10 -8 0 -12 5 -9 10 3 6 10 10 16 10 5 0
9 -4 9 -10z"/>
<path d="M2600 5579 c0 -37 5 -53 23 -69 12 -12 15 -19 7 -16 -10 4 -25 -8
-43 -34 -16 -22 -24 -40 -19 -40 6 0 13 7 16 16 5 13 15 15 48 10 24 -4 51
-15 62 -24 18 -16 19 -16 13 0 -8 21 13 66 34 73 13 4 16 15 12 53 -6 65 -10
72 -32 72 -11 0 -21 -6 -24 -12 -3 -10 -7 -10 -18 -2 -8 6 -29 14 -46 16 l-33
5 0 -48z m75 -69 c3 -5 1 -10 -4 -10 -6 0 -11 5 -11 10 0 6 2 10 4 10 3 0 8
-4 11 -10z"/>
<path d="M2924 5532 c-5 -4 -15 -15 -23 -25 -16 -20 -6 -32 60 -67 42 -22 49
-19 49 26 0 29 -6 36 -38 53 -21 11 -42 16 -48 13z"/>
<path d="M3795 5170 c-3 -5 1 -10 9 -10 8 0 18 5 21 10 3 6 -1 10 -9 10 -8 0
-18 -4 -21 -10z"/>
<path d="M4265 5020 c3 -5 8 -10 11 -10 2 0 4 5 4 10 0 6 -5 10 -11 10 -5 0
-7 -4 -4 -10z"/>
<path d="M4386 4952 c-3 -6 -1 -14 5 -17 15 -10 25 3 12 16 -7 7 -13 7 -17 1z"/>
<path d="M4025 4620 c-3 -5 -1 -10 4 -10 6 0 11 5 11 10 0 6 -2 10 -4 10 -3 0
-8 -4 -11 -10z"/>
<path d="M4127 4586 c-4 -10 -1 -13 8 -9 8 3 12 9 9 14 -7 12 -11 11 -17 -5z"/>
<path d="M440 4309 c-16 -29 -9 -227 8 -254 12 -17 12 -15 6 20 -13 64 -11
202 3 216 9 9 23 5 61 -20 52 -33 67 -62 56 -106 -4 -16 -2 -25 5 -25 6 0 14
14 18 32 5 27 7 29 14 13 7 -17 8 -18 8 -2 1 21 -2 21 73 -4 64 -22 98 -44 98
-62 0 -6 -11 0 -25 13 -25 23 -25 23 -40 4 -17 -23 -17 -25 -5 -44 8 -12 10
-12 15 2 4 10 3 22 -1 29 -4 7 -2 10 7 7 8 -3 13 -9 12 -14 0 -5 -4 -40 -8
-78 -9 -82 8 -85 21 -4 l8 53 6 -65 6 -65 7 50 c5 28 10 58 12 68 6 32 -16 77
-47 93 -17 9 -59 27 -94 40 -35 13 -85 39 -111 57 -101 71 -100 71 -113 46z"/>
<path d="M1425 4290 c3 -5 11 -10 16 -10 6 0 7 5 4 10 -3 6 -11 10 -16 10 -6
0 -7 -4 -4 -10z"/>
<path d="M467 4273 c-4 -3 -7 -13 -7 -22 1 -13 3 -13 11 2 11 19 8 33 -4 20z"/>
<path d="M1460 4234 c0 -17 14 -18 28 -1 8 10 6 13 -9 14 -10 1 -19 -5 -19
-13z"/>
<path d="M4105 4230 c4 -6 11 -8 16 -5 14 9 11 15 -7 15 -8 0 -12 -5 -9 -10z"/>
<path d="M455 4220 c3 -5 8 -10 11 -10 2 0 4 5 4 10 0 6 -5 10 -11 10 -5 0 -7
-4 -4 -10z"/>
<path d="M4286 4215 c-3 -8 -1 -15 3 -15 5 0 11 7 15 15 3 8 1 15 -3 15 -5 0
-11 -7 -15 -15z"/>
<path d="M4176 4184 c-9 -8 -16 -21 -16 -27 0 -7 9 -1 19 12 12 16 24 22 35
18 9 -4 16 -2 16 3 0 16 -37 12 -54 -6z"/>
<path d="M4130 4179 c0 -5 5 -7 10 -4 6 3 10 8 10 11 0 2 -4 4 -10 4 -5 0 -10
-5 -10 -11z"/>
<path d="M502 4160 c0 -14 2 -19 5 -12 2 6 2 18 0 25 -3 6 -5 1 -5 -13z"/>
<path d="M1450 4140 c0 -5 5 -10 11 -10 5 0 7 5 4 10 -3 6 -8 10 -11 10 -2 0
-4 -4 -4 -10z"/>
<path d="M4180 4140 c0 -5 5 -10 10 -10 6 0 10 5 10 10 0 6 -4 10 -10 10 -5 0
-10 -4 -10 -10z"/>
<path d="M1420 4106 c0 -9 5 -16 10 -16 6 0 10 4 10 9 0 6 -4 13 -10 16 -5 3
-10 -1 -10 -9z"/>
<path d="M1372 4088 c5 -15 28 -23 28 -10 0 5 -7 13 -16 16 -10 4 -14 1 -12
-6z"/>
<path d="M570 4075 c-7 -9 -19 -14 -27 -11 -7 3 -13 1 -13 -4 0 -6 7 -10 15
-10 8 0 15 -4 15 -10 0 -5 -11 -10 -25 -10 -46 0 -46 -54 1 -109 20 -24 24
-35 15 -45 -9 -10 -8 -15 4 -20 8 -3 15 -10 15 -16 0 -6 -4 -8 -10 -5 -5 3
-10 2 -10 -3 0 -5 12 -14 27 -21 24 -11 25 -11 13 4 -13 16 -11 16 25 1 46
-20 65 -15 65 16 0 21 -1 21 -13 4 -11 -15 -19 -17 -43 -9 -16 5 -31 18 -32
28 -4 16 -2 16 19 2 28 -20 49 -7 49 32 0 28 -61 201 -71 201 -4 0 -12 -7 -19
-15z"/>
<path d="M647 4051 c9 -23 21 -41 27 -41 6 0 5 5 -2 12 -7 7 -12 20 -12 29 0
9 -7 22 -15 29 -12 10 -11 5 2 -29z"/>
<path d="M4080 4040 l-25 -8 27 -1 c15 -1 30 4 33 9 7 11 0 11 -35 0z"/>
<path d="M696 3954 c-9 -24 -7 -54 4 -54 6 0 10 16 10 35 0 38 -4 44 -14 19z"/>
<path d="M771 3909 c0 -19 -8 -44 -16 -55 -8 -10 -15 -40 -15 -66 0 -49 -18
-148 -26 -148 -3 0 -14 5 -26 11 -15 8 -18 17 -14 35 10 40 -5 50 -21 13 -14
-33 -13 -35 14 -57 53 -43 65 -30 85 93 10 61 21 124 24 141 3 18 4 40 1 50
-3 11 -5 3 -6 -17z"/>
<path d="M4000 3930 c0 -5 5 -10 10 -10 6 0 10 5 10 10 0 6 -4 10 -10 10 -5 0
-10 -4 -10 -10z"/>
<path d="M4152 3906 c7 -8 15 -12 17 -11 5 6 -10 25 -20 25 -5 0 -4 -6 3 -14z"/>
<path d="M1511 3896 c-7 -8 5 -12 36 -13 40 -1 43 0 27 11 -23 16 -51 17 -63
2z"/>
<path d="M4110 3899 c0 -5 5 -7 10 -4 6 3 10 8 10 11 0 2 -4 4 -10 4 -5 0 -10
-5 -10 -11z"/>
<path d="M4184 3829 c-3 -6 -2 -15 3 -20 5 -5 9 -1 9 11 0 23 -2 24 -12 9z"/>
<path d="M550 3786 c0 -8 5 -18 10 -21 6 -3 10 3 10 14 0 12 -4 21 -10 21 -5
0 -10 -6 -10 -14z"/>
<path d="M1560 3789 c0 -5 5 -7 10 -4 6 3 10 8 10 11 0 2 -4 4 -10 4 -5 0 -10
-5 -10 -11z"/>
<path d="M1595 3791 c-3 -5 -1 -12 5 -16 12 -7 30 2 30 16 0 12 -27 12 -35 0z"/>
<path d="M4185 3780 c-3 -5 -2 -10 4 -10 5 0 13 5 16 10 3 6 2 10 -4 10 -5 0
-13 -4 -16 -10z"/>
<path d="M705 3720 c3 -5 8 -10 11 -10 2 0 4 5 4 10 0 6 -5 10 -11 10 -5 0 -7
-4 -4 -10z"/>
<path d="M1580 3721 c0 -13 26 -32 33 -24 8 7 -11 33 -24 33 -5 0 -9 -4 -9 -9z"/>
<path d="M1775 3640 c3 -5 8 -10 11 -10 2 0 4 5 4 10 0 6 -5 10 -11 10 -5 0
-7 -4 -4 -10z"/>
<path d="M1650 3530 c0 -6 -4 -8 -10 -5 -5 3 -10 1 -10 -4 0 -13 10 -14 29 -2
9 6 10 11 2 15 -6 4 -11 2 -11 -4z"/>
<path d="M1600 3470 c0 -5 5 -11 10 -11 6 -1 16 -2 23 -3 6 0 12 -6 12 -12 0
-18 32 -43 54 -41 27 2 27 17 1 24 -23 6 -26 19 -7 26 6 2 9 8 5 12 -4 4 -15
2 -24 -6 -14 -11 -18 -11 -28 1 -13 18 -46 25 -46 10z"/>
<path d="M1850 3421 c0 -6 5 -13 10 -16 6 -3 10 1 10 9 0 9 -4 16 -10 16 -5 0
-10 -4 -10 -9z"/>
<path d="M1740 3408 c0 -9 5 -20 10 -23 13 -8 13 5 0 25 -8 13 -10 13 -10 -2z"/>
<path d="M1648 3383 c6 -2 18 -2 25 0 6 3 1 5 -13 5 -14 0 -19 -2 -12 -5z"/>
<path d="M1857 3293 c-14 -4 -16 -8 -6 -19 16 -19 26 -18 32 6 3 11 2 19 -1
19 -4 -1 -15 -3 -25 -6z"/>
<path d="M1890 3254 c0 -8 5 -12 10 -9 6 3 10 10 10 16 0 5 -4 9 -10 9 -5 0
-10 -7 -10 -16z"/>
<path d="M3690 3180 c0 -5 5 -10 10 -10 6 0 10 5 10 10 0 6 -4 10 -10 10 -5 0
-10 -4 -10 -10z"/>
<path d="M5471 3154 c0 -11 3 -14 6 -6 3 7 2 16 -1 19 -3 4 -6 -2 -5 -13z"/>
<path d="M3957 3103 c-12 -11 -8 -22 12 -32 16 -9 17 -7 13 14 -4 25 -13 31
-25 18z"/>
<path d="M5150 3060 c0 -5 5 -10 11 -10 5 0 7 5 4 10 -3 6 -8 10 -11 10 -2 0
-4 -4 -4 -10z"/>
<path d="M5667 3063 c-4 -3 -7 -11 -7 -17 0 -6 5 -5 12 2 6 6 9 14 7 17 -3 3
-9 2 -12 -2z"/>
<path d="M3595 3030 c4 -6 11 -8 16 -5 14 9 11 15 -7 15 -8 0 -12 -5 -9 -10z"/>
<path d="M5590 3029 c0 -3 12 -14 26 -24 22 -14 28 -15 35 -4 5 8 9 19 9 24 0
6 -4 4 -8 -3 -5 -7 -16 -10 -25 -6 -9 3 -15 9 -12 13 2 4 -2 8 -10 8 -8 0 -15
-4 -15 -8z"/>
<path d="M2550 2980 c-11 -7 -7 -10 18 -10 20 0 31 4 27 10 -8 13 -26 13 -45
0z"/>
<path d="M3613 2958 c15 -24 32 -27 32 -5 0 6 -6 11 -12 10 -7 -2 -13 2 -13 7
0 6 -5 10 -11 10 -7 0 -6 -8 4 -22z"/>
<path d="M3553 2939 c-25 -9 -32 -39 -9 -39 16 0 39 26 34 38 -2 6 -13 6 -25
1z"/>
<path d="M3912 2905 c-7 -15 -8 -27 -2 -30 13 -8 32 4 25 15 -3 5 -1 11 5 15
14 9 12 25 -3 25 -8 0 -19 -11 -25 -25z"/>
<path d="M5000 2920 c0 -5 5 -10 11 -10 5 0 7 5 4 10 -3 6 -8 10 -11 10 -2 0
-4 -4 -4 -10z"/>
<path d="M4180 2881 c0 -24 18 -37 32 -23 8 8 7 16 -2 27 -17 21 -30 19 -30
-4z"/>
<path d="M4990 2890 c0 -5 5 -10 11 -10 5 0 7 5 4 10 -3 6 -8 10 -11 10 -2 0
-4 -4 -4 -10z"/>
<path d="M2937 2883 c-4 -3 -7 -11 -7 -17 0 -6 5 -5 12 2 6 6 9 14 7 17 -3 3
-9 2 -12 -2z"/>
<path d="M4110 2880 c0 -5 5 -10 11 -10 5 0 7 5 4 10 -3 6 -8 10 -11 10 -2 0
-4 -4 -4 -10z"/>
<path d="M2280 2870 c0 -5 4 -10 9 -10 6 0 13 5 16 10 3 6 -1 10 -9 10 -9 0
-16 -4 -16 -10z"/>
<path d="M4031 2870 c-1 -18 16 -46 23 -40 2 3 -2 16 -9 30 -8 15 -14 19 -14
10z"/>
<path d="M3483 2815 c4 -9 7 -21 7 -26 0 -15 16 -10 41 12 19 16 20 19 6 15
-10 -3 -28 -1 -39 5 -18 10 -20 9 -15 -6z"/>
<path d="M3940 2775 c0 -8 5 -15 10 -15 6 0 10 7 10 15 0 8 -4 15 -10 15 -5 0
-10 -7 -10 -15z"/>
<path d="M3891 2731 c-10 -18 -5 -47 17 -101 3 -8 6 -24 6 -35 1 -11 10 -21
23 -25 12 -3 36 -24 53 -48 29 -41 30 -45 18 -80 -6 -20 -16 -41 -20 -46 -4
-6 -8 -18 -8 -27 0 -9 -7 -30 -15 -45 -22 -42 -18 -71 10 -100 27 -27 62 -29
57 -2 -1 8 5 21 13 28 8 7 15 23 15 36 0 15 6 24 15 24 18 0 18 -5 5 -30 -7
-14 -6 -19 8 -22 15 -4 18 1 18 28 0 23 -5 34 -14 34 -10 0 -12 7 -8 23 3 12
6 25 6 29 0 4 10 7 23 5 14 -1 22 3 22 13 0 8 -7 14 -17 14 -14 -1 -15 3 -6
28 7 20 15 27 26 23 12 -4 13 -3 2 10 -15 18 -4 53 33 108 35 51 55 140 37
162 -9 11 -22 14 -39 10 -32 -8 -48 -30 -56 -77 -6 -31 -40 -79 -48 -67 -2 2
-11 16 -20 31 -15 24 -127 118 -141 118 -3 0 -10 -9 -15 -19z"/>
<path d="M3820 2696 c0 -22 42 -48 55 -35 7 7 3 16 -14 30 -28 23 -41 24 -41
5z"/>
<path d="M3612 2688 c-14 -14 -16 -28 -3 -28 9 0 24 30 18 36 -2 2 -9 -2 -15
-8z"/>
<path d="M4270 2692 c0 -10 22 -32 32 -32 5 0 3 9 -4 20 -13 20 -28 27 -28 12z"/>
<path d="M4510 2689 c-44 -18 -70 -50 -70 -86 0 -50 20 -80 99 -155 40 -36 67
-69 62 -72 -5 -4 -8 -16 -6 -29 4 -17 -4 -27 -34 -44 -34 -20 -40 -20 -66 -7
-35 18 -76 18 -101 -1 -26 -20 -38 -19 -30 3 7 16 6 16 -9 1 -24 -23 -11 -54
28 -70 18 -7 38 -17 46 -23 8 -6 44 -12 80 -13 54 -1 74 3 108 23 46 26 57 49
62 122 1 6 5 12 10 12 9 0 11 -15 15 -140 2 -47 4 -89 5 -95 4 -22 22 28 28
73 3 26 7 49 9 51 2 2 14 -3 26 -11 87 -57 295 0 281 76 -5 26 33 96 52 96 7
0 15 6 18 14 8 19 -22 58 -39 52 -15 -6 -35 12 -67 58 -22 32 -78 68 -129 85
-21 7 -42 20 -47 28 -13 25 -31 6 -25 -26 5 -23 2 -30 -15 -36 -11 -3 -33 -19
-48 -36 -15 -16 -33 -29 -40 -29 -17 0 -28 -69 -15 -90 8 -13 8 -22 -1 -33
-11 -14 -14 -14 -31 -2 -11 8 -14 15 -8 15 17 0 -14 56 -58 103 -19 22 -38 45
-43 52 -13 24 12 27 43 5 34 -24 78 -23 93 2 24 37 -81 139 -140 137 -10 0
-29 -5 -43 -10z m432 -235 c28 -3 45 -10 42 -16 -4 -6 -1 -14 6 -18 10 -6 9
-18 -5 -53 -26 -68 -46 -83 -94 -69 -51 16 -60 29 -65 94 -4 49 -2 57 17 66
12 6 29 9 37 7 8 -2 36 -7 62 -11z"/>
<path d="M2665 2679 c-11 -17 1 -21 15 -4 8 9 8 15 2 15 -6 0 -14 -5 -17 -11z"/>
<path d="M3650 2665 c-32 -17 -40 -50 -23 -99 19 -57 16 -91 -12 -124 -29 -34
-31 -54 -10 -72 12 -10 14 -24 9 -56 -5 -35 -1 -51 22 -93 15 -28 32 -51 39
-51 16 0 42 103 26 108 -12 4 -16 78 -3 85 4 3 27 7 51 8 l44 3 6 -39 c3 -22
6 -72 6 -112 l0 -71 27 14 c15 8 31 22 36 32 15 28 24 119 25 258 1 120 -1
133 -22 162 -28 40 -59 58 -74 43 -7 -7 -7 -18 1 -36 13 -28 16 -84 6 -110
-15 -39 -96 -40 -93 -1 0 11 1 49 0 83 -1 72 -18 91 -61 68z"/>
<path d="M3368 2638 c-27 -22 -35 -49 -28 -89 8 -41 -6 -129 -19 -129 -10 0
-31 46 -31 65 0 8 -4 15 -10 15 -5 0 -10 7 -10 15 0 18 -45 49 -60 40 -15 -9
-12 -92 5 -158 8 -31 30 -77 49 -102 20 -25 40 -65 47 -88 12 -48 35 -77 58
-77 14 0 16 14 14 97 0 53 3 108 9 122 l10 26 13 -30 c7 -16 21 -49 30 -72 10
-23 26 -50 36 -59 11 -10 19 -27 19 -40 0 -46 18 -32 23 19 3 28 11 72 16 97
6 25 18 88 26 140 8 52 18 110 21 127 12 62 -12 101 -51 86 -27 -10 -45 -60
-51 -140 -3 -43 -8 -85 -11 -93 -8 -22 -23 32 -33 121 -12 105 -33 137 -72
107z"/>
<path d="M4070 2630 c0 -5 5 -10 10 -10 6 0 10 5 10 10 0 6 -4 10 -10 10 -5 0
-10 -4 -10 -10z"/>
<path d="M4744 2585 c-17 -13 -17 -14 -2 -15 9 0 20 5 23 11 11 17 0 20 -21 4z"/>
<path d="M4390 2580 c0 -5 5 -10 11 -10 5 0 7 5 4 10 -3 6 -8 10 -11 10 -2 0
-4 -4 -4 -10z"/>
<path d="M5942 2534 c-12 -8 -42 -41 -67 -74 -27 -35 -73 -77 -115 -105 -46
-30 -70 -53 -70 -65 0 -11 11 -43 23 -73 13 -29 27 -69 31 -89 9 -50 53 -154
82 -197 13 -20 36 -72 50 -117 19 -61 31 -84 48 -92 29 -13 68 5 72 33 1 11 8
34 15 51 10 25 10 36 -2 62 -8 19 -16 27 -20 20 -4 -6 0 -22 8 -34 14 -21 13
-26 -6 -52 -39 -56 -51 -60 -76 -28 -22 27 -40 84 -31 94 3 2 12 -11 20 -29
16 -35 39 -69 48 -69 13 0 15 40 3 50 -10 8 -14 7 -17 -7 -3 -13 -10 -6 -22
24 -10 23 -24 44 -32 47 -8 3 -14 16 -15 28 0 13 -7 39 -14 58 l-13 35 -2 -30
c-1 -28 -1 -29 -13 -10 -14 25 -29 61 -57 145 -13 36 -29 81 -37 100 -27 69
-23 89 30 128 47 34 48 34 68 16 42 -38 55 -83 57 -199 3 -130 14 -169 49
-162 17 3 23 0 23 -14 0 -25 12 -24 28 1 9 15 10 26 2 40 -8 14 -5 27 11 55
21 35 21 37 4 80 -9 25 -20 45 -25 45 -5 0 -29 19 -53 43 -39 36 -47 50 -56
101 -13 73 -14 85 -1 66 8 -12 10 -9 10 13 0 17 13 41 34 65 31 33 36 35 50
22 9 -8 18 -31 21 -50 l5 -35 -12 32 c-17 42 -27 51 -38 33 -12 -19 -13 -33
-1 -25 5 3 13 0 17 -6 3 -6 1 -15 -6 -19 -15 -10 -9 -52 9 -58 10 -3 12 0 8
11 -3 9 -2 19 2 22 11 6 20 -28 22 -75 0 -19 3 -29 6 -22 2 6 10 9 15 5 8 -4
9 2 5 18 -4 13 -7 34 -7 47 0 13 -4 20 -10 17 -6 -4 -7 5 -4 23 6 29 -11 107
-25 116 -4 3 -17 -2 -29 -10z"/>
<path d="M3030 2490 c0 -5 5 -10 10 -10 6 0 10 5 10 10 0 6 -4 10 -10 10 -5 0
-10 -4 -10 -10z"/>
<path d="M3065 2431 c-6 -11 9 -23 19 -14 9 9 7 23 -3 23 -6 0 -12 -4 -16 -9z"/>
<path d="M3080 2360 c0 -5 5 -10 10 -10 6 0 10 5 10 10 0 6 -4 10 -10 10 -5 0
-10 -4 -10 -10z"/>
<path d="M1095 2350 c-3 -5 -1 -10 4 -10 6 0 11 5 11 10 0 6 -2 10 -4 10 -3 0
-8 -4 -11 -10z"/>
<path d="M4095 2340 c3 -5 10 -10 16 -10 5 0 9 5 9 10 0 6 -7 10 -16 10 -8 0
-12 -4 -9 -10z"/>
<path d="M1485 2320 c-3 -5 -1 -10 4 -10 6 0 11 5 11 10 0 6 -2 10 -4 10 -3 0
-8 -4 -11 -10z"/>
<path d="M3025 2322 c-4 -4 -16 -7 -28 -7 -12 0 -23 -7 -25 -17 -3 -13 5 -16
43 -16 55 1 76 20 41 36 -13 6 -27 8 -31 4z"/>
<path d="M2045 2290 c-3 -5 1 -10 9 -10 9 0 16 5 16 10 0 6 -4 10 -9 10 -6 0
-13 -4 -16 -10z"/>
<path d="M5730 2296 c0 -2 7 -6 15 -10 8 -3 15 -1 15 4 0 6 -7 10 -15 10 -8 0
-15 -2 -15 -4z"/>
<path d="M1770 2269 c0 -5 5 -7 10 -4 6 3 10 8 10 11 0 2 -4 4 -10 4 -5 0 -10
-5 -10 -11z"/>
<path d="M1320 2260 c0 -5 5 -10 10 -10 6 0 10 5 10 10 0 6 -4 10 -10 10 -5 0
-10 -4 -10 -10z"/>
<path d="M5740 2259 c0 -5 5 -7 10 -4 6 3 10 8 10 11 0 2 -4 4 -10 4 -5 0 -10
-5 -10 -11z"/>
<path d="M5345 2250 c-3 -5 -1 -10 4 -10 6 0 11 5 11 10 0 6 -2 10 -4 10 -3 0
-8 -4 -11 -10z"/>
<path d="M5417 2234 c6 -15 23 -19 23 -5 0 5 -7 11 -14 14 -10 4 -13 1 -9 -9z"/>
<path d="M5470 2240 c0 -5 5 -10 10 -10 6 0 10 5 10 10 0 6 -4 10 -10 10 -5 0
-10 -4 -10 -10z"/>
<path d="M5750 2225 c0 -8 5 -15 10 -15 6 0 10 7 10 15 0 8 -4 15 -10 15 -5 0
-10 -7 -10 -15z"/>
<path d="M6042 2220 c0 -14 2 -19 5 -12 2 6 2 18 0 25 -3 6 -5 1 -5 -13z"/>
<path d="M3780 2220 c0 -5 5 -10 10 -10 6 0 10 5 10 10 0 6 -4 10 -10 10 -5 0
-10 -4 -10 -10z"/>
<path d="M1637 2213 c-4 -3 -7 -11 -7 -17 0 -6 5 -5 12 2 6 6 9 14 7 17 -3 3
-9 2 -12 -2z"/>
<path d="M3261 2196 c-17 -20 3 -56 29 -56 23 0 25 9 8 45 -13 29 -21 31 -37
11z"/>
<path d="M1138 2193 c7 -3 16 -2 19 1 4 3 -2 6 -13 5 -11 0 -14 -3 -6 -6z"/>
<path d="M1925 2179 c-10 -15 3 -25 16 -12 7 7 7 13 1 17 -6 3 -14 1 -17 -5z"/>
<path d="M5765 2181 c-3 -5 -1 -12 5 -16 5 -3 10 1 10 9 0 18 -6 21 -15 7z"/>
<path d="M3595 2153 c-11 -3 -43 -19 -71 -36 -47 -28 -51 -33 -42 -53 7 -14
23 -25 43 -28 28 -6 33 -11 39 -44 3 -20 6 -57 6 -80 0 -24 7 -69 15 -100 9
-32 20 -74 26 -95 8 -31 14 -38 30 -34 20 5 18 -4 -9 -36 -8 -9 -13 -20 -10
-23 4 -3 19 10 34 30 24 30 27 42 25 88 -1 29 -7 61 -13 71 -5 10 -7 25 -4 34
11 28 37 -6 32 -41 -3 -17 2 -57 11 -88 12 -46 13 -61 3 -73 -15 -18 -6 -61
15 -69 25 -9 36 27 25 85 -6 28 -10 77 -10 108 l0 56 29 -45 c35 -54 127 -157
135 -150 3 3 1 22 -3 43 -5 20 -7 37 -5 37 11 0 44 -36 44 -48 0 -23 45 -142
53 -142 5 0 5 9 2 20 -4 11 -2 20 4 20 6 0 10 22 8 53 -1 28 4 121 11 205 10
115 10 157 2 168 -7 7 -9 18 -5 24 3 5 1 10 -4 10 -23 0 -9 22 22 35 23 10 27
14 12 15 -11 0 -26 9 -33 20 -17 27 -37 25 -77 -7 -25 -20 -32 -31 -27 -47 8
-24 7 -209 -1 -246 -3 -14 -6 -33 -6 -43 -1 -27 -17 -12 -24 21 -3 16 -20 54
-38 83 -33 55 -38 94 -19 144 6 17 5 32 -5 52 -26 51 -70 80 -147 97 -14 3
-32 8 -40 10 -7 2 -22 1 -33 -1z m93 -169 c4 -42 3 -44 -22 -44 -25 0 -26 2
-26 58 0 32 3 62 7 65 12 12 36 -34 41 -79z m62 36 c0 -25 -10 -50 -21 -50
-10 0 -12 63 -3 73 11 10 24 -3 24 -23z"/>
<path d="M6041 2144 c0 -11 3 -14 6 -6 3 7 2 16 -1 19 -3 4 -6 -2 -5 -13z"/>
<path d="M3912 2141 c4 -13 18 -16 19 -4 0 4 -5 9 -11 12 -7 2 -11 -2 -8 -8z"/>
<path d="M1470 2130 c0 -5 5 -10 10 -10 6 0 10 5 10 10 0 6 -4 10 -10 10 -5 0
-10 -4 -10 -10z"/>
<path d="M2963 2114 c-27 -16 -43 -32 -43 -45 0 -20 -24 -26 -35 -9 -4 6 -13
5 -24 -2 -17 -11 -16 -16 27 -82 50 -78 129 -165 120 -131 -3 11 -9 28 -13 38
-12 28 11 20 37 -13 13 -17 33 -43 44 -58 25 -32 30 -56 20 -94 -8 -28 -36
-39 -36 -15 0 27 -20 39 -68 43 l-51 3 -7 -36 c-11 -58 31 -101 113 -113 78
-12 173 37 173 90 0 25 19 27 26 3 3 -10 10 -27 14 -38 5 -11 10 -29 12 -40 2
-15 11 -20 33 -20 17 0 32 -3 35 -7 3 -3 28 -2 55 3 28 6 66 12 85 15 41 6
120 42 120 55 0 5 -4 9 -10 9 -5 0 -7 7 -4 15 12 31 -37 29 -185 -7 -9 -2 -17
9 -22 32 -4 19 -6 36 -4 38 2 2 39 12 82 21 73 15 97 32 56 40 -10 1 -26 10
-35 18 -11 10 -33 14 -65 12 l-48 -3 -3 40 c-3 43 9 53 63 54 11 0 38 5 60 11
l39 11 -27 15 c-15 8 -37 11 -47 8 -11 -4 -20 -2 -20 4 0 5 9 13 20 16 23 7
26 21 8 28 -7 2 -49 2 -94 -1 -65 -4 -86 -1 -107 13 -30 19 -51 12 -44 -16 3
-11 0 -25 -6 -32 -53 -57 -52 -54 -26 -92 13 -19 30 -35 37 -35 6 0 12 -8 12
-17 0 -10 14 -42 30 -72 17 -30 30 -56 30 -59 0 -8 -43 42 -80 93 -40 55 -99
113 -149 147 -49 33 -60 54 -39 75 14 14 22 15 43 5 60 -28 88 -6 61 46 -34
66 -93 79 -163 36z"/>
<path d="M4795 2129 c-9 -14 -7 -15 38 -23 41 -8 44 -5 21 18 -18 18 -50 21
-59 5z"/>
<path d="M5367 2104 c-40 -37 -57 -42 -57 -19 0 26 -18 16 -29 -16 -14 -41
-14 -52 1 -47 7 3 21 -6 31 -19 21 -26 68 -31 86 -9 12 14 68 19 76 7 2 -4 -5
-18 -15 -31 -16 -21 -25 -24 -73 -22 l-55 2 2 -67 c2 -48 -2 -73 -12 -85 -13
-15 -13 -20 -1 -34 8 -9 19 -33 24 -52 8 -27 17 -38 40 -44 41 -11 67 -1 64
25 -6 82 1 104 51 167 77 96 87 164 36 241 -23 34 -27 36 -78 36 -48 0 -59 -4
-91 -33z"/>
<path d="M5862 2120 c0 -14 2 -19 5 -12 2 6 2 18 0 25 -3 6 -5 1 -5 -13z"/>
<path d="M2580 2117 c-33 -15 -33 -14 -25 -26 4 -8 15 -6 35 4 54 28 46 47
-10 22z"/>
<path d="M4972 2121 c2 -7 7 -12 11 -12 12 1 9 15 -3 20 -7 2 -11 -2 -8 -8z"/>
<path d="M2516 2111 c-4 -5 -2 -12 3 -15 5 -4 12 -2 15 3 4 5 2 12 -3 15 -5 4
-12 2 -15 -3z"/>
<path d="M4112 2104 c-23 -16 -47 -62 -38 -72 7 -6 106 67 106 79 0 15 -44 10
-68 -7z"/>
<path d="M5060 2113 c-19 -3 -44 -12 -55 -22 -11 -9 -33 -23 -49 -31 -45 -23
-60 -53 -47 -93 18 -53 78 -116 140 -145 63 -30 84 -62 75 -111 -6 -27 -11
-31 -38 -31 -36 0 -116 53 -116 76 0 24 -37 53 -60 47 -13 -3 -19 -11 -16 -19
3 -8 1 -14 -5 -14 -5 0 -14 -11 -20 -24 -21 -46 61 -122 151 -141 19 -4 44
-12 55 -19 13 -8 44 -10 90 -6 l70 5 2 54 c2 36 8 58 19 66 18 13 16 32 -8 95
-15 41 -58 89 -58 65 0 -24 -18 -17 -42 16 -13 17 -33 35 -46 40 -23 9 -26 36
-3 31 68 -15 131 3 131 37 0 17 -115 133 -129 129 -3 0 -22 -3 -41 -5z m99
-507 c-11 -9 -69 -14 -69 -6 0 6 17 10 37 10 20 0 34 -2 32 -4z m54 -3 c-7 -2
-21 -2 -30 0 -10 3 -4 5 12 5 17 0 24 -2 18 -5z"/>
<path d="M2780 2096 c0 -10 9 -16 21 -16 24 0 21 23 -4 28 -10 2 -17 -3 -17
-12z"/>
<path d="M4557 2052 c-8 -73 -28 -164 -43 -200 -20 -46 -17 -106 5 -151 27
-52 41 -61 108 -71 52 -7 61 -6 90 16 17 13 38 22 45 19 14 -5 52 60 79 135 7
19 18 42 24 50 6 8 17 34 24 56 12 36 11 49 -3 92 -21 63 -35 74 -83 70 -32
-2 -37 -6 -35 -23 9 -48 2 -178 -9 -192 -6 -7 -8 -17 -4 -22 7 -13 -19 -55
-62 -98 -37 -37 -45 -39 -67 -17 -22 22 -21 42 14 262 0 2 5 0 12 -4 8 -5 9
-2 5 9 -4 10 -2 28 3 42 6 17 6 25 -1 25 -6 0 -7 5 -4 10 12 19 -14 37 -54 38
l-38 2 -6 -48z"/>
<path d="M4200 2070 c-19 -10 -46 -24 -60 -30 -14 -6 -34 -20 -45 -30 -11 -10
-24 -18 -28 -17 -5 1 -10 -32 -12 -73 -1 -41 -6 -89 -10 -106 -5 -22 -2 -39 8
-55 8 -14 17 -61 21 -108 3 -52 11 -88 18 -93 10 -6 10 -8 1 -8 -7 0 -13 -6
-13 -14 0 -8 -8 -17 -17 -20 -15 -6 -14 -8 4 -21 14 -10 19 -22 16 -35 -7 -26
13 -26 27 -1 13 25 13 34 0 26 -6 -3 -7 1 -4 9 3 9 10 16 16 16 5 0 6 10 2 23
-9 29 -6 83 7 125 8 25 15 32 28 27 9 -4 42 -11 73 -17 78 -14 157 10 197 59
l29 35 11 -34 c12 -37 65 -106 75 -98 3 3 -8 26 -24 50 -17 25 -30 52 -30 61
0 9 -6 22 -14 28 -10 9 -11 22 -5 59 6 31 6 48 -1 50 -5 2 -10 13 -10 23 0 63
-109 180 -153 163 -7 -2 -20 2 -27 11 -16 20 -37 18 -80 -5z m183 -103 c15
-17 47 -76 47 -88 0 -5 -18 11 -40 35 -40 43 -50 66 -29 66 6 0 16 -6 22 -13z
m-86 -8 c15 -6 46 -29 67 -51 38 -39 39 -42 19 -49 -12 -4 -26 -17 -32 -28 -6
-11 -21 -21 -33 -23 -13 -2 -24 -11 -26 -20 -3 -14 3 -18 23 -18 15 0 24 -4
20 -10 -8 -13 -79 -3 -122 17 -33 15 -43 36 -43 92 0 26 8 42 36 67 39 37 48
39 91 23z m163 -119 c0 -5 -4 -10 -10 -10 -5 0 -10 5 -10 10 0 6 5 10 10 10 6
0 10 -4 10 -10z m-64 -27 c-10 -10 -19 5 -10 18 6 11 8 11 12 0 2 -7 1 -15 -2
-18z"/>
<path d="M5800 2075 c0 -8 5 -15 10 -15 6 0 10 7 10 15 0 8 -4 15 -10 15 -5 0
-10 -7 -10 -15z"/>
<path d="M2489 2075 c-3 -2 -3 -20 -1 -39 4 -37 26 -53 48 -35 21 17 17 50 -6
56 -11 3 -20 9 -20 14 0 10 -14 12 -21 4z"/>
<path d="M5191 2073 c0 -12 59 -56 59 -46 0 11 -43 53 -53 53 -4 0 -7 -3 -6
-7z"/>
<path d="M6006 2054 c-10 -25 1 -29 14 -5 6 12 7 21 1 21 -5 0 -12 -7 -15 -16z"/>
<path d="M2374 1969 c-10 -17 13 -36 27 -22 12 12 4 33 -11 33 -5 0 -12 -5
-16 -11z"/>
<path d="M5986 1955 c-9 -14 -12 -25 -7 -25 12 0 35 39 28 46 -2 3 -12 -7 -21
-21z"/>
<path d="M4720 1938 c0 -7 5 -20 10 -28 8 -12 10 -9 10 13 0 15 -4 27 -10 27
-5 0 -10 -6 -10 -12z"/>
<path d="M5590 1930 c0 -5 5 -10 10 -10 6 0 10 5 10 10 0 6 -4 10 -10 10 -5 0
-10 -4 -10 -10z"/>
<path d="M5665 1870 c3 -5 8 -10 11 -10 2 0 4 5 4 10 0 6 -5 10 -11 10 -5 0
-7 -4 -4 -10z"/>
<path d="M2710 1850 c0 -5 5 -10 10 -10 6 0 10 5 10 10 0 6 -4 10 -10 10 -5 0
-10 -4 -10 -10z"/>
<path d="M5508 1849 c-22 -12 -23 -29 -3 -29 8 0 19 9 25 20 12 22 4 25 -22 9z"/>
<path d="M2570 1841 c0 -5 5 -13 10 -16 6 -3 10 -2 10 4 0 5 -4 13 -10 16 -5
3 -10 2 -10 -4z"/>
<path d="M5640 1830 c0 -5 5 -10 10 -10 6 0 10 5 10 10 0 6 -4 10 -10 10 -5 0
-10 -4 -10 -10z"/>
<path d="M2640 1800 c0 -5 7 -10 15 -10 8 0 15 5 15 10 0 6 -7 10 -15 10 -8 0
-15 -4 -15 -10z"/>
<path d="M3535 1759 c-4 -6 -5 -13 -2 -16 7 -7 27 6 27 18 0 12 -17 12 -25 -2z"/>
<path d="M2577 1712 c-27 -28 -35 -52 -19 -52 5 0 17 9 27 20 9 10 22 18 29
17 14 -3 15 35 1 40 -6 2 -23 -9 -38 -25z"/>
<path d="M2717 1713 c-4 -3 -2 -12 4 -20 9 -10 15 -10 25 -2 8 6 14 15 14 20
0 10 -34 12 -43 2z"/>
<path d="M2718 1663 c7 -3 16 -2 19 1 4 3 -2 6 -13 5 -11 0 -14 -3 -6 -6z"/>
<path d="M2805 1660 c-4 -6 -3 -14 0 -20 9 -15 35 -12 35 4 0 17 -27 29 -35
16z"/>
<path d="M5420 1632 c-36 -5 -82 -58 -74 -86 12 -38 35 -56 74 -56 32 0 40 5
53 32 14 30 14 35 -5 72 -11 23 -21 41 -22 41 0 1 -12 -1 -26 -3z"/>
<path d="M2554 1605 c-7 -30 3 -62 15 -49 5 5 12 24 16 42 5 25 3 32 -9 32 -9
0 -18 -11 -22 -25z"/>
<path d="M4916 1603 c-9 -22 6 -35 35 -31 29 4 23 24 -6 21 -11 -1 -14 1 -7 3
16 7 15 24 -2 24 -8 0 -17 -8 -20 -17z"/>
<path d="M2428 1583 c7 -3 16 -2 19 1 4 3 -2 6 -13 5 -11 0 -14 -3 -6 -6z"/>
<path d="M4970 1550 c0 -5 9 -10 21 -10 11 0 17 5 14 10 -3 6 -13 10 -21 10
-8 0 -14 -4 -14 -10z"/>
<path d="M5177 1524 c-15 -15 -6 -45 16 -53 30 -12 57 12 41 37 -12 18 -45 28
-57 16z"/>
<path d="M3400 1500 c0 -5 5 -10 10 -10 6 0 10 5 10 10 0 6 -4 10 -10 10 -5 0
-10 -4 -10 -10z"/>
<path d="M2533 1460 c-8 -11 -9 -21 -3 -25 8 -5 30 24 30 39 0 13 -16 5 -27
-14z"/>
<path d="M5002 1458 c6 -17 36 -34 44 -25 4 4 -1 14 -12 22 -23 18 -37 19 -32
3z"/>
<path d="M4870 1435 c0 -8 5 -15 10 -15 6 0 10 7 10 15 0 8 -4 15 -10 15 -5 0
-10 -7 -10 -15z"/>
<path d="M4650 1420 c0 -5 5 -10 11 -10 5 0 7 5 4 10 -3 6 -8 10 -11 10 -2 0
-4 -4 -4 -10z"/>
<path d="M4563 1398 c2 -7 10 -13 17 -13 7 0 15 6 18 13 2 7 -5 12 -18 12 -13
0 -20 -5 -17 -12z"/>
<path d="M4525 1369 c-4 -6 -5 -12 -2 -15 2 -3 7 2 10 11 7 17 1 20 -8 4z"/>
<path d="M4705 1370 c3 -5 10 -10 16 -10 5 0 9 5 9 10 0 6 -7 10 -16 10 -8 0
-12 -4 -9 -10z"/>
<path d="M3640 1360 c0 -5 7 -10 15 -10 8 0 15 5 15 10 0 6 -7 10 -15 10 -8 0
-15 -4 -15 -10z"/>
<path d="M4174 1359 c-8 -14 11 -33 25 -25 16 10 13 36 -3 36 -8 0 -18 -5 -22
-11z"/>
<path d="M4366 1353 c-11 -11 -6 -23 9 -23 8 0 15 4 15 9 0 13 -16 22 -24 14z"/>
<path d="M4092 1328 c-8 -8 -9 -15 -1 -25 15 -17 25 -17 32 1 8 21 -16 39 -31
24z"/>
<path d="M3025 1321 c-3 -5 -1 -12 5 -16 12 -7 30 2 30 16 0 12 -27 12 -35 0z"/>
<path d="M3070 1270 c-8 -5 -11 -12 -8 -16 10 -9 38 3 38 16 0 12 -10 13 -30
0z"/>
<path d="M3015 1250 c4 -6 11 -8 16 -5 14 9 11 15 -7 15 -8 0 -12 -5 -9 -10z"/>
<path d="M4012 1249 c2 -6 8 -10 13 -10 5 0 11 4 13 10 2 6 -4 11 -13 11 -9 0
-15 -5 -13 -11z"/>
<path d="M3345 1179 c-4 -6 -5 -13 -2 -16 7 -7 27 6 27 18 0 12 -17 12 -25 -2z"/>
<path d="M3010 1070 c0 -5 5 -10 10 -10 6 0 10 5 10 10 0 6 -4 10 -10 10 -5 0
-10 -4 -10 -10z"/>
<path d="M2760 1020 c0 -5 5 -10 10 -10 6 0 10 5 10 10 0 6 -4 10 -10 10 -5 0
-10 -4 -10 -10z"/>
</g>
</svg>
